<svg id="Camada_1" data-name="Camada 1" xmlns="http://www.w3.org/2000/svg" viewBox="0 0 98.59 86.99"><defs><style>.cls-1{fill:#fff;}.cls-2{fill:none;stroke:#fff;stroke-miterlimit:10;stroke-width:4px;}</style></defs><title>Prancheta 31</title><path class="cls-1" d="M27.85,71.13l-7.53-23,6.73-2.2a5.82,5.82,0,0,1,4.29-.08q1.67.76,2.6,3.65l.08.24.25.75c0,.17.12.43.2.78a4.23,4.23,0,0,1,.12.86,6.13,6.13,0,0,1,0,.82,2.41,2.41,0,0,1-.22.86,4.24,4.24,0,0,1-.5.75,3.13,3.13,0,0,1-.82.7,3.4,3.4,0,0,1,1.54.22,3.8,3.8,0,0,1,1.15.7,4.75,4.75,0,0,1,.85,1.12,8.47,8.47,0,0,1,.61,1.19c.13.33.27.74.42,1.21a16.8,16.8,0,0,1,.77,3.2,7.42,7.42,0,0,1-.09,2.59,4,4,0,0,1-1.19,2.07,6.71,6.71,0,0,1-2.51,1.37ZM28,55.21l1-.33a1.06,1.06,0,0,0,.55-.36.87.87,0,0,0,.18-.56,2.56,2.56,0,0,0-.05-.58,5,5,0,0,0-.15-.58l-.75-2.28a1,1,0,0,0-1.42-.75l-1,.34Zm1.17,3.58,2.18,6.67.5-.13Q33.8,64.7,33.24,63l-.94-2.87a3,3,0,0,0-.89-1.49,1.37,1.37,0,0,0-1.32-.14Z"/><path class="cls-1" d="M45,35l7.52,23-4.85,1.59L41.38,48.94l3.76,11.5L40.29,62,32.77,39l5.1-1.67,5.88,10.25-3.6-11Z"/><path class="cls-1" d="M61.65,37.25l1.42,4.34a5.75,5.75,0,0,1-.22,5,7.39,7.39,0,0,1-4.19,2.93,6.43,6.43,0,0,1-4.82-.14,6.06,6.06,0,0,1-3.11-3.87L47.24,34.8a8,8,0,0,1-.2-5.6A6.13,6.13,0,0,1,51.1,26a8.68,8.68,0,0,1,2.48-.45,6.37,6.37,0,0,1,2.24.33,4.68,4.68,0,0,1,1.86,1.24,6,6,0,0,1,1.26,2.22l1.32,4.05L55.36,35l-.88-2.67q-.67-2.07-1.86-1.68c-.47.16-.73.41-.78.76A3,3,0,0,0,52,32.74l3.55,10.87a2.47,2.47,0,0,0,.72,1.12,1,1,0,0,0,1,.25,1.15,1.15,0,0,0,.71-.66,2.16,2.16,0,0,0-.09-1.48l-1.3-4Z"/><path class="cls-1" d="M74.27,28.44l1.42,4.35a5.75,5.75,0,0,1-.22,5,7.34,7.34,0,0,1-4.19,2.92,6.33,6.33,0,0,1-4.82-.14,6,6,0,0,1-3.11-3.86L59.86,26a8,8,0,0,1-.2-5.6,6.13,6.13,0,0,1,4.06-3.21,8.68,8.68,0,0,1,2.48-.45,6.37,6.37,0,0,1,2.24.33,4.58,4.58,0,0,1,1.86,1.24,6,6,0,0,1,1.26,2.22l1.32,4L68,26.19l-.88-2.67q-.67-2.07-1.86-1.68c-.47.15-.73.41-.78.76a3,3,0,0,0,.19,1.34L68.2,34.81a2.53,2.53,0,0,0,.72,1.12,1,1,0,0,0,1,.25,1.18,1.18,0,0,0,.71-.66,2.12,2.12,0,0,0-.1-1.48l-1.29-3.95Z"/><circle class="cls-2" cx="49.29" cy="43.75" r="39.35"/></svg>