<svg id="Camada_1" data-name="Camada 1" xmlns="http://www.w3.org/2000/svg" viewBox="0 0 98.59 86.99"><defs><style>.cls-1{fill:#fff;}</style></defs><title>Prancheta 31</title><polygon class="cls-1" points="0 70.52 98.33 70.52 98.59 75.9 0 76.33 0 70.52"/><path class="cls-1" d="M66.78,53.5c-.06-2-.71-11.72-1.2-13-.4-1.07-4-2-5.21-2.65-.75-.41-6.29-3.83-6.42-4.19-.38-1.09,1.24,0,1.8.08.9.09,6.06-.31,6.67-.68.89-.53.11-6.39-.09-7.61-1.57-9.74-5.2-15.39-16-14.11C37.14,12.44,36.21,25.46,36,32.63l3.67.94,4.88-.08c-1.78,1-3.44,2.33-5.22,3.33-1.18.67-6.1,2.69-6.41,3.51-.39,1-.82,7.92-.86,9.4,0,1.24.1,10.14.35,10.61s2.73.48,2.9-.17V46a.54.54,0,0,1,.6-.25c1,.41-.07,14.54.69,14.87H62.08c.49-.19.55-2.33.6-3,.31-4.32-.11-9.16-.18-13.51l.77-.26c1,2.08-.05,16,.43,16.68a10.27,10.27,0,0,0,2.31.08C66.94,60.23,66.81,54.61,66.78,53.5ZM44.72,31c-1-1-4.7-6.38-2.82-7.35.53-.28,2.77-.4,3.59-.69a28.69,28.69,0,0,0,4.1-1.88c.92-.54,4.17-3.55,4.45-3.59.66-.09,2.46,1.42,2.82,2,2.4,3.62-1,10.6-4.19,12.91-2.24,1.62-3.41,1.82-5.9.68C46.41,32.9,43.17,31.25,44.72,31Zm4,6.15c-1-.07-4.62-2.92-3.59-4.44,1.7,1.32,3.5,2,5.64,1.37.41-.13,2.36-1.54,2.57-1.37C54.65,33.8,50.12,37.26,48.74,37.16Zm-4.62-2.73c.5,0,2.94,3.08,4.45,3.25,2.3.26,5-3.25,5.47-3.25a9.48,9.48,0,0,1,1.45.94c.16.54-5.52,8.27-6.24,9.32L43,35.37A7.67,7.67,0,0,1,44.12,34.43Zm12.4,8.81c-.54.37-1.77-.21-2.14-.09s-3.51,7.21-5.3,7.52c-.34,0-1.86-1.78-2.14-2.13C46,47.32,44.72,44,44.21,43.41s-1.4.22-2.06-.17L42.24,36c.4-.09.54.2.77.43s5.47,8.06,5.64,8.55c.3.86-.15,1.17.09,2,.45-.65.62-1.27.85,0,.65-.37,0-1.44.09-1.79.13-.52,5.57-8.56,6-8.9s.67-.45.86,0C56.94,37.25,56.2,41.82,56.52,43.24Z"/><path class="cls-1" d="M34.29,65.89l-1.46-2.22c-.94.3-.43-.2-.68-.34-.62-.36-1.52-.27-2-.86l-2.48-.17c0-.24.34-1.21-.26-1-.27.08-2.69,4.14-3.59,4.44-.58.06-2.41-2.59-2.82-3.07l.17-.18c.62.88,1.85,1.79,2.48,2.74l3.51-4.45c.07,0,.27,0,.34,0a64.31,64.31,0,0,0,6.24,2.91A4.71,4.71,0,0,1,34.29,65.89Z"/><path class="cls-1" d="M34,68.8H12.31c-.69-.3.73-3.85,1.11-4.36,1-1.35,7-3.16,7-4.79,0-.15-1.34-2-1.54-2.56-4.74-12.26,8.66-14.68,11.45-6.67,1,2.91.71,6.84,1,9.92-.69,1.45-5.32-3.49-3.93.42-.07,0-.27,0-.34,0s0-.6-.6-.51c-.13,0-1.5,1.43-2.06,1.54-2,.38-3.43-1.76-3.76-1.71-1.13.17.09,1.91.43,2.39l-.17.18c-.31-.37-.9-1.27-1.37-1.29l.34,3.76c.22.55,1.64-.26,2.14-.08.34.12,1.22,2.5,1.71,2.39.3-.28,1.25-2.33,1.37-2.39,1.27-.62,2.56,2,2.48-2.74l2.48.17c.53.59,1.43.5,2,.86.25.14-.26.64.68.34l1.46,2.22C34.45,66.73,35.18,68.45,34,68.8Z"/><path class="cls-1" d="M23.09,49.65a9.59,9.59,0,0,1,4.44,1c3.36,2.26,1,7.53-1.54,9.57-1.28,1-2,1.55-3.59.69C18.59,58.83,17,50,23.09,49.65Z"/><path class="cls-1" d="M27.1,60.77l-3.5,4.44c-.64-.94-1.86-1.86-2.48-2.73-.34-.49-1.56-2.23-.43-2.4.33,0,1.78,2.1,3.76,1.71.56-.1,1.93-1.52,2.06-1.54C27.08,60.17,27,60.71,27.1,60.77Z"/><path class="cls-1" d="M79.09,50.51h-.17c-1-3.16-8.63-3.65-10.26-.86a17.83,17.83,0,0,0-1,3.25C65.63,43.3,78.93,41.38,79.09,50.51Z"/><path class="cls-1" d="M78.92,50.51c.84,2.58-1.33,7.54-3.51,9.06-1.79,1.25-2.94.82-4.44-.68-2.5-2.5-2.38-6-2.31-9.24C70.29,46.86,77.89,47.35,78.92,50.51Z"/><path class="cls-1" d="M84.05,63.41c-.81-1.22-7.14-2.76-7.18-4.61,0-.46,4.83-7,2.22-8.3h-.17c.84,2.59-1.33,7.55-3.5,9.07-1.8,1.25-3,.81-4.45-.69-2.5-2.49-2.38-6-2.31-9.23a17.35,17.35,0,0,0-1,3.25s.31-.06.35.08c.47,2.09.9,4.19,2.39,5.82-1.19,2.6-6,3.14-7.35,5-.32.41-2,4.67-1.63,4.87H84.14C85,68.32,84.59,64.23,84.05,63.41ZM70.2,59.65l.43-.43c.33-.06,1.77,2,3.93,1.37.43-.13,2.69-2.35,2.65-.6a26.21,26.21,0,0,1-3.68,4.37C72.88,63.56,70,60.53,70.2,59.65Zm6.93,4.88c-.22,0-1.48-.5-1.89-.35-.22.09-1.45,2.8-1.71,2.74-.3-.39-1.25-2.66-1.53-2.74s-1.89.5-2.14.26a18.33,18.33,0,0,1-.26-4c.31-.25,3.31,4.69,4.28,4.45l3.59-4.62.43.26C77.49,61.21,77.87,64.34,77.13,64.53Z"/></svg>