<svg id="Camada_1" data-name="Camada 1" xmlns="http://www.w3.org/2000/svg" viewBox="0 0 98.59 86.99"><defs><style>.cls-1{fill:#fff;}</style></defs><title>Prancheta 31</title><path class="cls-1" d="M71.75,31.18l-2.32,1.6L68.86,32l2.34-1.61.48.7a22.31,22.31,0,0,0-4.91-6.14,24.37,24.37,0,0,0-4.27-3L61.29,24l-.87-.5,1.19-2.05A27.41,27.41,0,0,0,49.8,18.62l-.16,3.12-1,0,.17-3.07a27.83,27.83,0,0,0-11.93,2.82l1.35,2.21-.85.52L36,21.9c-7,3.8-12.24,11-12.24,21.9s5.21,18,12.13,21.83l1.54-2.22.82.57-1.47,2.11A27.66,27.66,0,0,0,48.68,69v-2.8h1V69a27.81,27.81,0,0,0,12-2.89L60.26,64l.82-.57,1.54,2.21c6.91-3.83,12.1-11,12.1-21.82A26.37,26.37,0,0,0,71.75,31.18ZM27.3,30.34l2.26,1.51-.56.83-2.26-1.51Zm-3.44,13h3.31v1H23.86ZM27.3,57.24l-.56-.82,2.33-1.61.57.82Zm37.17-12c-.3.18-.42,1.81-1.13,1-.25-.28-.28-1-.53-1.14a95.2,95.2,0,0,0-10.55,0,13.12,13.12,0,0,1-1.35,1.51c-2.9,1.66-5.88-1-4.9-4.14.33-1.06,1.77-1.45,2-2.26l.45-13.57c-1.65-.33.34-3,.68-3.09.68-.21,1.09,2.21,2.49,1.89l-1.51,1.2c.44,4.12,0,8.76.45,12.81.22,1.92.33,1.24,1.36,2.41a5.39,5.39,0,0,1,.45,1.06c.42.42,9.82.21,11.23.23a.78.78,0,0,1,.75-.31,14.6,14.6,0,0,1,2.19,1.59C66.42,45.24,64.78,45,64.47,45.23Zm6.73,12-2.34-1.61.57-.82,2.33,1.61Zm.43-12.87v-1h3v1Zm.12-13.19-2.32,1.6L68.86,32l2.34-1.61.48.7a22.31,22.31,0,0,0-4.91-6.14,24.37,24.37,0,0,0-4.27-3L61.29,24l-.87-.5,1.19-2.05A27.41,27.41,0,0,0,49.8,18.62l-.16,3.12-1,0,.17-3.07a27.83,27.83,0,0,0-11.93,2.82l1.35,2.21-.85.52L36,21.9c-7,3.8-12.24,11-12.24,21.9s5.21,18,12.13,21.83l1.54-2.22.82.57-1.47,2.11A27.66,27.66,0,0,0,48.68,69v-2.8h1V69a27.81,27.81,0,0,0,12-2.89L60.26,64l.82-.57,1.54,2.21c6.91-3.83,12.1-11,12.1-21.82A26.37,26.37,0,0,0,71.75,31.18ZM27.3,30.34l2.26,1.51-.56.83-2.26-1.51Zm-3.44,13h3.31v1H23.86ZM27.3,57.24l-.56-.82,2.33-1.61.57.82Zm37.17-12c-.3.18-.42,1.81-1.13,1-.25-.28-.28-1-.53-1.14a95.2,95.2,0,0,0-10.55,0,13.12,13.12,0,0,1-1.35,1.51c-2.9,1.66-5.88-1-4.9-4.14.33-1.06,1.77-1.45,2-2.26l.45-13.57c-1.65-.33.34-3,.68-3.09.68-.21,1.09,2.21,2.49,1.89l-1.51,1.2c.44,4.12,0,8.76.45,12.81.22,1.92.33,1.24,1.36,2.41a5.39,5.39,0,0,1,.45,1.06c.42.42,9.82.21,11.23.23a.78.78,0,0,1,.75-.31,14.6,14.6,0,0,1,2.19,1.59C66.42,45.24,64.78,45,64.47,45.23Zm6.73,12-2.34-1.61.57-.82,2.33,1.61Zm.43-12.87v-1h3v1Zm.12-13.19-2.32,1.6L68.86,32l2.34-1.61.48.7a22.31,22.31,0,0,0-4.91-6.14,24.37,24.37,0,0,0-4.27-3L61.29,24l-.87-.5,1.19-2.05A27.41,27.41,0,0,0,49.8,18.62l-.16,3.12-1,0,.17-3.07a27.83,27.83,0,0,0-11.93,2.82l1.35,2.21-.85.52L36,21.9c-7,3.8-12.24,11-12.24,21.9s5.21,18,12.13,21.83l1.54-2.22.82.57-1.47,2.11A27.66,27.66,0,0,0,48.68,69v-2.8h1V69a27.81,27.81,0,0,0,12-2.89L60.26,64l.82-.57,1.54,2.21c6.91-3.83,12.1-11,12.1-21.82A26.37,26.37,0,0,0,71.75,31.18ZM27.3,30.34l2.26,1.51-.56.83-2.26-1.51Zm-3.44,13h3.31v1H23.86ZM27.3,57.24l-.56-.82,2.33-1.61.57.82Zm37.17-12c-.3.18-.42,1.81-1.13,1-.25-.28-.28-1-.53-1.14a95.2,95.2,0,0,0-10.55,0,13.12,13.12,0,0,1-1.35,1.51c-2.9,1.66-5.88-1-4.9-4.14.33-1.06,1.77-1.45,2-2.26l.45-13.57c-1.65-.33.34-3,.68-3.09.68-.21,1.09,2.21,2.49,1.89l-1.51,1.2c.44,4.12,0,8.76.45,12.81.22,1.92.33,1.24,1.36,2.41a5.39,5.39,0,0,1,.45,1.06c.42.42,9.82.21,11.23.23a.78.78,0,0,1,.75-.31,14.6,14.6,0,0,1,2.19,1.59C66.42,45.24,64.78,45,64.47,45.23Zm6.73,12-2.34-1.61.57-.82,2.33,1.61Zm.43-12.87v-1h3v1Zm.12-13.19-2.32,1.6L68.86,32l2.34-1.61.48.7a22.31,22.31,0,0,0-4.91-6.14,24.37,24.37,0,0,0-4.27-3L61.29,24l-.87-.5,1.19-2.05A27.41,27.41,0,0,0,49.8,18.62l-.16,3.12-1,0,.17-3.07a27.83,27.83,0,0,0-11.93,2.82l1.35,2.21-.85.52L36,21.9c-7,3.8-12.24,11-12.24,21.9s5.21,18,12.13,21.83l1.54-2.22.82.57-1.47,2.11A27.66,27.66,0,0,0,48.68,69v-2.8h1V69a27.81,27.81,0,0,0,12-2.89L60.26,64l.82-.57,1.54,2.21c6.91-3.83,12.1-11,12.1-21.82A26.37,26.37,0,0,0,71.75,31.18ZM27.3,30.34l2.26,1.51-.56.83-2.26-1.51Zm-3.44,13h3.31v1H23.86ZM27.3,57.24l-.56-.82,2.33-1.61.57.82Zm37.17-12c-.3.18-.42,1.81-1.13,1-.25-.28-.28-1-.53-1.14a95.2,95.2,0,0,0-10.55,0,13.12,13.12,0,0,1-1.35,1.51c-2.9,1.66-5.88-1-4.9-4.14.33-1.06,1.77-1.45,2-2.26l.45-13.57c-1.65-.33.34-3,.68-3.09.68-.21,1.09,2.21,2.49,1.89l-1.51,1.2c.44,4.12,0,8.76.45,12.81.22,1.92.33,1.24,1.36,2.41a5.39,5.39,0,0,1,.45,1.06c.42.42,9.82.21,11.23.23a.78.78,0,0,1,.75-.31,14.6,14.6,0,0,1,2.19,1.59C66.42,45.24,64.78,45,64.47,45.23Zm6.73,12-2.34-1.61.57-.82,2.33,1.61Zm.43-12.87v-1h3v1Zm.12-13.19-2.32,1.6L68.86,32l2.34-1.61.48.7a22.31,22.31,0,0,0-4.91-6.14,24.37,24.37,0,0,0-4.27-3L61.29,24l-.87-.5,1.19-2.05A27.41,27.41,0,0,0,49.8,18.62l-.16,3.12-1,0,.17-3.07a27.83,27.83,0,0,0-11.93,2.82l1.35,2.21-.85.52L36,21.9c-7,3.8-12.24,11-12.24,21.9s5.21,18,12.13,21.83l1.54-2.22.82.57-1.47,2.11A27.66,27.66,0,0,0,48.68,69v-2.8h1V69a27.81,27.81,0,0,0,12-2.89L60.26,64l.82-.57,1.54,2.21c6.91-3.83,12.1-11,12.1-21.82A26.37,26.37,0,0,0,71.75,31.18ZM27.3,30.34l2.26,1.51-.56.83-2.26-1.51Zm-3.44,13h3.31v1H23.86ZM27.3,57.24l-.56-.82,2.33-1.61.57.82Zm37.17-12c-.3.18-.42,1.81-1.13,1-.25-.28-.28-1-.53-1.14a95.2,95.2,0,0,0-10.55,0,13.12,13.12,0,0,1-1.35,1.51c-2.9,1.66-5.88-1-4.9-4.14.33-1.06,1.77-1.45,2-2.26l.45-13.57c-1.65-.33.34-3,.68-3.09.68-.21,1.09,2.21,2.49,1.89l-1.51,1.2c.44,4.12,0,8.76.45,12.81.22,1.92.33,1.24,1.36,2.41a5.39,5.39,0,0,1,.45,1.06c.42.42,9.82.21,11.23.23a.78.78,0,0,1,.75-.31,14.6,14.6,0,0,1,2.19,1.59C66.42,45.24,64.78,45,64.47,45.23Zm6.73,12-2.34-1.61.57-.82,2.33,1.61Zm.43-12.87v-1h3v1Zm.12-13.19-2.32,1.6L68.86,32l2.34-1.61.48.7a22.31,22.31,0,0,0-4.91-6.14,24.37,24.37,0,0,0-4.27-3L61.29,24l-.87-.5,1.19-2.05A27.41,27.41,0,0,0,49.8,18.62l-.16,3.12-1,0,.17-3.07a27.83,27.83,0,0,0-11.93,2.82l1.35,2.21-.85.52L36,21.9c-7,3.8-12.24,11-12.24,21.9s5.21,18,12.13,21.83l1.54-2.22.82.57-1.47,2.11A27.66,27.66,0,0,0,48.68,69v-2.8h1V69a27.81,27.81,0,0,0,12-2.89L60.26,64l.82-.57,1.54,2.21c6.91-3.83,12.1-11,12.1-21.82A26.37,26.37,0,0,0,71.75,31.18ZM27.3,30.34l2.26,1.51-.56.83-2.26-1.51Zm-3.44,13h3.31v1H23.86ZM27.3,57.24l-.56-.82,2.33-1.61.57.82Zm37.17-12c-.3.18-.42,1.81-1.13,1-.25-.28-.28-1-.53-1.14a95.2,95.2,0,0,0-10.55,0,13.12,13.12,0,0,1-1.35,1.51c-2.9,1.66-5.88-1-4.9-4.14.33-1.06,1.77-1.45,2-2.26l.45-13.57c-1.65-.33.34-3,.68-3.09.68-.21,1.09,2.21,2.49,1.89l-1.51,1.2c.44,4.12,0,8.76.45,12.81.22,1.92.33,1.24,1.36,2.41a5.39,5.39,0,0,1,.45,1.06c.42.42,9.82.21,11.23.23a.78.78,0,0,1,.75-.31,14.6,14.6,0,0,1,2.19,1.59C66.42,45.24,64.78,45,64.47,45.23Zm6.73,12-2.34-1.61.57-.82,2.33,1.61Zm.43-12.87v-1h3v1Zm.12-13.19-2.32,1.6L68.86,32l2.34-1.61.48.7a22.31,22.31,0,0,0-4.91-6.14,24.37,24.37,0,0,0-4.27-3L61.29,24l-.87-.5,1.19-2.05A27.41,27.41,0,0,0,49.8,18.62l-.16,3.12-1,0,.17-3.07a27.83,27.83,0,0,0-11.93,2.82l1.35,2.21-.85.52L36,21.9c-7,3.8-12.24,11-12.24,21.9s5.21,18,12.13,21.83l1.54-2.22.82.57-1.47,2.11A27.66,27.66,0,0,0,48.68,69v-2.8h1V69a27.81,27.81,0,0,0,12-2.89L60.26,64l.82-.57,1.54,2.21c6.91-3.83,12.1-11,12.1-21.82A26.37,26.37,0,0,0,71.75,31.18ZM27.3,30.34l2.26,1.51-.56.83-2.26-1.51Zm-3.44,13h3.31v1H23.86ZM27.3,57.24l-.56-.82,2.33-1.61.57.82Zm37.17-12c-.3.18-.42,1.81-1.13,1-.25-.28-.28-1-.53-1.14a95.2,95.2,0,0,0-10.55,0,13.12,13.12,0,0,1-1.35,1.51c-2.9,1.66-5.88-1-4.9-4.14.33-1.06,1.77-1.45,2-2.26l.45-13.57c-1.65-.33.34-3,.68-3.09.68-.21,1.09,2.21,2.49,1.89l-1.51,1.2c.44,4.12,0,8.76.45,12.81.22,1.92.33,1.24,1.36,2.41a5.39,5.39,0,0,1,.45,1.06c.42.42,9.82.21,11.23.23a.78.78,0,0,1,.75-.31,14.6,14.6,0,0,1,2.19,1.59C66.42,45.24,64.78,45,64.47,45.23Zm6.73,12-2.34-1.61.57-.82,2.33,1.61Zm.43-12.87v-1h3v1Zm.12-13.19-2.32,1.6L68.86,32l2.34-1.61.48.7a22.31,22.31,0,0,0-4.91-6.14,24.37,24.37,0,0,0-4.27-3L61.29,24l-.87-.5,1.19-2.05A27.41,27.41,0,0,0,49.8,18.62l-.16,3.12-1,0,.17-3.07a27.83,27.83,0,0,0-11.93,2.82l1.35,2.21-.85.52L36,21.9c-7,3.8-12.24,11-12.24,21.9s5.21,18,12.13,21.83l1.54-2.22.82.57-1.47,2.11A27.66,27.66,0,0,0,48.68,69v-2.8h1V69a27.81,27.81,0,0,0,12-2.89L60.26,64l.82-.57,1.54,2.21c6.91-3.83,12.1-11,12.1-21.82A26.37,26.37,0,0,0,71.75,31.18ZM27.3,30.34l2.26,1.51-.56.83-2.26-1.51Zm-3.44,13h3.31v1H23.86ZM27.3,57.24l-.56-.82,2.33-1.61.57.82Zm37.17-12c-.3.18-.42,1.81-1.13,1-.25-.28-.28-1-.53-1.14a95.2,95.2,0,0,0-10.55,0,13.12,13.12,0,0,1-1.35,1.51c-2.9,1.66-5.88-1-4.9-4.14.33-1.06,1.77-1.45,2-2.26l.45-13.57c-1.65-.33.34-3,.68-3.09.68-.21,1.09,2.21,2.49,1.89l-1.51,1.2c.44,4.12,0,8.76.45,12.81.22,1.92.33,1.24,1.36,2.41a5.39,5.39,0,0,1,.45,1.06c.42.42,9.82.21,11.23.23a.78.78,0,0,1,.75-.31,14.6,14.6,0,0,1,2.19,1.59C66.42,45.24,64.78,45,64.47,45.23Zm6.73,12-2.34-1.61.57-.82,2.33,1.61Zm.43-12.87v-1h3v1Zm.12-13.19-2.32,1.6L68.86,32l2.34-1.61.48.7a22.31,22.31,0,0,0-4.91-6.14,24.37,24.37,0,0,0-4.27-3L61.29,24l-.87-.5,1.19-2.05A27.41,27.41,0,0,0,49.8,18.62l-.16,3.12-1,0,.17-3.07a27.83,27.83,0,0,0-11.93,2.82l1.35,2.21-.85.52L36,21.9c-7,3.8-12.24,11-12.24,21.9s5.21,18,12.13,21.83l1.54-2.22.82.57-1.47,2.11A27.66,27.66,0,0,0,48.68,69v-2.8h1V69a27.81,27.81,0,0,0,12-2.89L60.26,64l.82-.57,1.54,2.21c6.91-3.83,12.1-11,12.1-21.82A26.37,26.37,0,0,0,71.75,31.18ZM27.3,30.34l2.26,1.51-.56.83-2.26-1.51Zm-3.44,13h3.31v1H23.86ZM27.3,57.24l-.56-.82,2.33-1.61.57.82Zm37.17-12c-.3.18-.42,1.81-1.13,1-.25-.28-.28-1-.53-1.14a95.2,95.2,0,0,0-10.55,0,13.12,13.12,0,0,1-1.35,1.51c-2.9,1.66-5.88-1-4.9-4.14.33-1.06,1.77-1.45,2-2.26l.45-13.57c-1.65-.33.34-3,.68-3.09.68-.21,1.09,2.21,2.49,1.89l-1.51,1.2c.44,4.12,0,8.76.45,12.81.22,1.92.33,1.24,1.36,2.41a5.39,5.39,0,0,1,.45,1.06c.42.42,9.82.21,11.23.23a.78.78,0,0,1,.75-.31,14.6,14.6,0,0,1,2.19,1.59C66.42,45.24,64.78,45,64.47,45.23Zm6.73,12-2.34-1.61.57-.82,2.33,1.61Zm.43-12.87v-1h3v1Zm.12-13.19-2.32,1.6L68.86,32l2.34-1.61.48.7a22.31,22.31,0,0,0-4.91-6.14,24.37,24.37,0,0,0-4.27-3L61.29,24l-.87-.5,1.19-2.05A27.41,27.41,0,0,0,49.8,18.62l-.16,3.12-1,0,.17-3.07a27.83,27.83,0,0,0-11.93,2.82l1.35,2.21-.85.52L36,21.9c-7,3.8-12.24,11-12.24,21.9s5.21,18,12.13,21.83l1.54-2.22.82.57-1.47,2.11A27.66,27.66,0,0,0,48.68,69v-2.8h1V69a27.81,27.81,0,0,0,12-2.89L60.26,64l.82-.57,1.54,2.21c6.91-3.83,12.1-11,12.1-21.82A26.37,26.37,0,0,0,71.75,31.18ZM27.3,30.34l2.26,1.51-.56.83-2.26-1.51Zm-3.44,13h3.31v1H23.86ZM27.3,57.24l-.56-.82,2.33-1.61.57.82Zm37.17-12c-.3.18-.42,1.81-1.13,1-.25-.28-.28-1-.53-1.14a95.2,95.2,0,0,0-10.55,0,13.12,13.12,0,0,1-1.35,1.51c-2.9,1.66-5.88-1-4.9-4.14.33-1.06,1.77-1.45,2-2.26l.45-13.57c-1.65-.33.34-3,.68-3.09.68-.21,1.09,2.21,2.49,1.89l-1.51,1.2c.44,4.12,0,8.76.45,12.81.22,1.92.33,1.24,1.36,2.41a5.39,5.39,0,0,1,.45,1.06c.42.42,9.82.21,11.23.23a.78.78,0,0,1,.75-.31,14.6,14.6,0,0,1,2.19,1.59C66.42,45.24,64.78,45,64.47,45.23Zm6.73,12-2.34-1.61.57-.82,2.33,1.61Zm.43-12.87v-1h3v1Zm.12-13.19-2.32,1.6L68.86,32l2.34-1.61.48.7a22.31,22.31,0,0,0-4.91-6.14,24.37,24.37,0,0,0-4.27-3L61.29,24l-.87-.5,1.19-2.05A27.41,27.41,0,0,0,49.8,18.62l-.16,3.12-1,0,.17-3.07a27.83,27.83,0,0,0-11.93,2.82l1.35,2.21-.85.52L36,21.9c-7,3.8-12.24,11-12.24,21.9s5.21,18,12.13,21.83l1.54-2.22.82.57-1.47,2.11A27.66,27.66,0,0,0,48.68,69v-2.8h1V69a27.81,27.81,0,0,0,12-2.89L60.26,64l.82-.57,1.54,2.21c6.91-3.83,12.1-11,12.1-21.82A26.37,26.37,0,0,0,71.75,31.18ZM27.3,30.34l2.26,1.51-.56.83-2.26-1.51Zm-3.44,13h3.31v1H23.86ZM27.3,57.24l-.56-.82,2.33-1.61.57.82Zm37.17-12c-.3.18-.42,1.81-1.13,1-.25-.28-.28-1-.53-1.14a95.2,95.2,0,0,0-10.55,0,13.12,13.12,0,0,1-1.35,1.51c-2.9,1.66-5.88-1-4.9-4.14.33-1.06,1.77-1.45,2-2.26l.45-13.57c-1.65-.33.34-3,.68-3.09.68-.21,1.09,2.21,2.49,1.89l-1.51,1.2c.44,4.12,0,8.76.45,12.81.22,1.92.33,1.24,1.36,2.41a5.39,5.39,0,0,1,.45,1.06c.42.42,9.82.21,11.23.23a.78.78,0,0,1,.75-.31,14.6,14.6,0,0,1,2.19,1.59C66.42,45.24,64.78,45,64.47,45.23Zm6.73,12-2.34-1.61.57-.82,2.33,1.61Zm.43-12.87v-1h3v1Zm.12-13.19-2.32,1.6L68.86,32l2.34-1.61.48.7a22.31,22.31,0,0,0-4.91-6.14,24.37,24.37,0,0,0-4.27-3L61.29,24l-.87-.5,1.19-2.05A27.41,27.41,0,0,0,49.8,18.62l-.16,3.12-1,0,.17-3.07a27.83,27.83,0,0,0-11.93,2.82l1.35,2.21-.85.52L36,21.9c-7,3.8-12.24,11-12.24,21.9s5.21,18,12.13,21.83l1.54-2.22.82.57-1.47,2.11A27.66,27.66,0,0,0,48.68,69v-2.8h1V69a27.81,27.81,0,0,0,12-2.89L60.26,64l.82-.57,1.54,2.21c6.91-3.83,12.1-11,12.1-21.82A26.37,26.37,0,0,0,71.75,31.18ZM27.3,30.34l2.26,1.51-.56.83-2.26-1.51Zm-3.44,13h3.31v1H23.86ZM27.3,57.24l-.56-.82,2.33-1.61.57.82Zm37.17-12c-.3.18-.42,1.81-1.13,1-.25-.28-.28-1-.53-1.14a95.2,95.2,0,0,0-10.55,0,13.12,13.12,0,0,1-1.35,1.51c-2.9,1.66-5.88-1-4.9-4.14.33-1.06,1.77-1.45,2-2.26l.45-13.57c-1.65-.33.34-3,.68-3.09.68-.21,1.09,2.21,2.49,1.89l-1.51,1.2c.44,4.12,0,8.76.45,12.81.22,1.92.33,1.24,1.36,2.41a5.39,5.39,0,0,1,.45,1.06c.42.42,9.82.21,11.23.23a.78.78,0,0,1,.75-.31,14.6,14.6,0,0,1,2.19,1.59C66.42,45.24,64.78,45,64.47,45.23Zm6.73,12-2.34-1.61.57-.82,2.33,1.61Zm.43-12.87v-1h3v1Zm.12-13.19-2.32,1.6L68.86,32l2.34-1.61.48.7a22.31,22.31,0,0,0-4.91-6.14,24.37,24.37,0,0,0-4.27-3L61.29,24l-.87-.5,1.19-2.05A27.41,27.41,0,0,0,49.8,18.62l-.16,3.12-1,0,.17-3.07a27.83,27.83,0,0,0-11.93,2.82l1.35,2.21-.85.52L36,21.9c-7,3.8-12.24,11-12.24,21.9s5.21,18,12.13,21.83l1.54-2.22.82.57-1.47,2.11A27.66,27.66,0,0,0,48.68,69v-2.8h1V69a27.81,27.81,0,0,0,12-2.89L60.26,64l.82-.57,1.54,2.21c6.91-3.83,12.1-11,12.1-21.82A26.37,26.37,0,0,0,71.75,31.18ZM27.3,30.34l2.26,1.51-.56.83-2.26-1.51Zm-3.44,13h3.31v1H23.86ZM27.3,57.24l-.56-.82,2.33-1.61.57.82Zm37.17-12c-.3.18-.42,1.81-1.13,1-.25-.28-.28-1-.53-1.14a95.2,95.2,0,0,0-10.55,0,13.12,13.12,0,0,1-1.35,1.51c-2.9,1.66-5.88-1-4.9-4.14.33-1.06,1.77-1.45,2-2.26l.45-13.57c-1.65-.33.34-3,.68-3.09.68-.21,1.09,2.21,2.49,1.89l-1.51,1.2c.44,4.12,0,8.76.45,12.81.22,1.92.33,1.24,1.36,2.41a5.39,5.39,0,0,1,.45,1.06c.42.42,9.82.21,11.23.23a.78.78,0,0,1,.75-.31,14.6,14.6,0,0,1,2.19,1.59C66.42,45.24,64.78,45,64.47,45.23Zm6.73,12-2.34-1.61.57-.82,2.33,1.61Zm.43-12.87v-1h3v1Zm.12-13.19-2.32,1.6L68.86,32l2.34-1.61.48.7a22.31,22.31,0,0,0-4.91-6.14,24.37,24.37,0,0,0-4.27-3L61.29,24l-.87-.5,1.19-2.05A27.41,27.41,0,0,0,49.8,18.62l-.16,3.12-1,0,.17-3.07a27.83,27.83,0,0,0-11.93,2.82l1.35,2.21-.85.52L36,21.9c-7,3.8-12.24,11-12.24,21.9s5.21,18,12.13,21.83l1.54-2.22.82.57-1.47,2.11A27.66,27.66,0,0,0,48.68,69v-2.8h1V69a27.81,27.81,0,0,0,12-2.89L60.26,64l.82-.57,1.54,2.21c6.91-3.83,12.1-11,12.1-21.82A26.37,26.37,0,0,0,71.75,31.18ZM27.3,30.34l2.26,1.51-.56.83-2.26-1.51Zm-3.44,13h3.31v1H23.86ZM27.3,57.24l-.56-.82,2.33-1.61.57.82Zm37.17-12c-.3.18-.42,1.81-1.13,1-.25-.28-.28-1-.53-1.14a95.2,95.2,0,0,0-10.55,0,13.12,13.12,0,0,1-1.35,1.51c-2.9,1.66-5.88-1-4.9-4.14.33-1.06,1.77-1.45,2-2.26l.45-13.57c-1.65-.33.34-3,.68-3.09.68-.21,1.09,2.21,2.49,1.89l-1.51,1.2c.44,4.12,0,8.76.45,12.81.22,1.92.33,1.24,1.36,2.41a5.39,5.39,0,0,1,.45,1.06c.42.42,9.82.21,11.23.23a.78.78,0,0,1,.75-.31,14.6,14.6,0,0,1,2.19,1.59C66.42,45.24,64.78,45,64.47,45.23Zm6.73,12-2.34-1.61.57-.82,2.33,1.61Zm.43-12.87v-1h3v1Zm.12-13.19-2.32,1.6L68.86,32l2.34-1.61.48.7a22.31,22.31,0,0,0-4.91-6.14,24.37,24.37,0,0,0-4.27-3L61.29,24l-.87-.5,1.19-2.05A27.41,27.41,0,0,0,49.8,18.62l-.16,3.12-1,0,.17-3.07a27.83,27.83,0,0,0-11.93,2.82l1.35,2.21-.85.52L36,21.9c-7,3.8-12.24,11-12.24,21.9s5.21,18,12.13,21.83l1.54-2.22.82.57-1.47,2.11A27.66,27.66,0,0,0,48.68,69v-2.8h1V69a27.81,27.81,0,0,0,12-2.89L60.26,64l.82-.57,1.54,2.21c6.91-3.83,12.1-11,12.1-21.82A26.37,26.37,0,0,0,71.75,31.18ZM27.3,30.34l2.26,1.51-.56.83-2.26-1.51Zm-3.44,13h3.31v1H23.86ZM27.3,57.24l-.56-.82,2.33-1.61.57.82Zm37.17-12c-.3.18-.42,1.81-1.13,1-.25-.28-.28-1-.53-1.14a95.2,95.2,0,0,0-10.55,0,13.12,13.12,0,0,1-1.35,1.51c-2.9,1.66-5.88-1-4.9-4.14.33-1.06,1.77-1.45,2-2.26l.45-13.57c-1.65-.33.34-3,.68-3.09.68-.21,1.09,2.21,2.49,1.89l-1.51,1.2c.44,4.12,0,8.76.45,12.81.22,1.92.33,1.24,1.36,2.41a5.39,5.39,0,0,1,.45,1.06c.42.42,9.82.21,11.23.23a.78.78,0,0,1,.75-.31,14.6,14.6,0,0,1,2.19,1.59C66.42,45.24,64.78,45,64.47,45.23Zm6.73,12-2.34-1.61.57-.82,2.33,1.61Zm.43-12.87v-1h3v1Zm.12-13.19-2.32,1.6L68.86,32l2.34-1.61.48.7a22.31,22.31,0,0,0-4.91-6.14,24.37,24.37,0,0,0-4.27-3L61.29,24l-.87-.5,1.19-2.05A27.41,27.41,0,0,0,49.8,18.62l-.16,3.12-1,0,.17-3.07a27.83,27.83,0,0,0-11.93,2.82l1.35,2.21-.85.52L36,21.9c-7,3.8-12.24,11-12.24,21.9s5.21,18,12.13,21.83l1.54-2.22.82.57-1.47,2.11A27.66,27.66,0,0,0,48.68,69v-2.8h1V69a27.81,27.81,0,0,0,12-2.89L60.26,64l.82-.57,1.54,2.21c6.91-3.83,12.1-11,12.1-21.82A26.37,26.37,0,0,0,71.75,31.18ZM27.3,30.34l2.26,1.51-.56.83-2.26-1.51Zm-3.44,13h3.31v1H23.86ZM27.3,57.24l-.56-.82,2.33-1.61.57.82Zm37.17-12c-.3.18-.42,1.81-1.13,1-.25-.28-.28-1-.53-1.14a95.2,95.2,0,0,0-10.55,0,13.12,13.12,0,0,1-1.35,1.51c-2.9,1.66-5.88-1-4.9-4.14.33-1.06,1.77-1.45,2-2.26l.45-13.57c-1.65-.33.34-3,.68-3.09.68-.21,1.09,2.21,2.49,1.89l-1.51,1.2c.44,4.12,0,8.76.45,12.81.22,1.92.33,1.24,1.36,2.41a5.39,5.39,0,0,1,.45,1.06c.42.42,9.82.21,11.23.23a.78.78,0,0,1,.75-.31,14.6,14.6,0,0,1,2.19,1.59C66.42,45.24,64.78,45,64.47,45.23Zm6.73,12-2.34-1.61.57-.82,2.33,1.61Zm.43-12.87v-1h3v1ZM46.24,14.18c-23.83,1.94-35,31.07-19.52,49.06C40.3,79,66,76,75.55,57.51,86.53,36.36,69.74,12.27,46.24,14.18Zm3,55.8C36.48,70,22.75,61.79,22.75,43.8S36.48,17.61,49.23,17.61s26.49,8.2,26.49,26.19S62,70,49.23,70Zm22.52-38.8-2.32,1.6L68.86,32l2.34-1.61.48.7a22.31,22.31,0,0,0-4.91-6.14,24.37,24.37,0,0,0-4.27-3L61.29,24l-.87-.5,1.19-2.05A27.41,27.41,0,0,0,49.8,18.62l-.16,3.12-1,0,.17-3.07a27.83,27.83,0,0,0-11.93,2.82l1.35,2.21-.85.52L36,21.9c-7,3.8-12.24,11-12.24,21.9s5.21,18,12.13,21.83l1.54-2.22.82.57-1.47,2.11A27.66,27.66,0,0,0,48.68,69v-2.8h1V69a27.81,27.81,0,0,0,12-2.89L60.26,64l.82-.57,1.54,2.21c6.91-3.83,12.1-11,12.1-21.82A26.37,26.37,0,0,0,71.75,31.18ZM27.3,30.34l2.26,1.51-.56.83-2.26-1.51Zm-3.44,13h3.31v1H23.86ZM27.3,57.24l-.56-.82,2.33-1.61.57.82Zm37.17-12c-.3.18-.42,1.81-1.13,1-.25-.28-.28-1-.53-1.14a95.2,95.2,0,0,0-10.55,0,13.12,13.12,0,0,1-1.35,1.51c-2.9,1.66-5.88-1-4.9-4.14.33-1.06,1.77-1.45,2-2.26l.45-13.57c-1.65-.33.34-3,.68-3.09.68-.21,1.09,2.21,2.49,1.89l-1.51,1.2c.44,4.12,0,8.76.45,12.81.22,1.92.33,1.24,1.36,2.41a5.39,5.39,0,0,1,.45,1.06c.42.42,9.82.21,11.23.23a.78.78,0,0,1,.75-.31,14.6,14.6,0,0,1,2.19,1.59C66.42,45.24,64.78,45,64.47,45.23Zm6.73,12-2.34-1.61.57-.82,2.33,1.61Zm.43-12.87v-1h3v1Zm.12-13.19-2.32,1.6L68.86,32l2.34-1.61.48.7a22.31,22.31,0,0,0-4.91-6.14,24.37,24.37,0,0,0-4.27-3L61.29,24l-.87-.5,1.19-2.05A27.41,27.41,0,0,0,49.8,18.62l-.16,3.12-1,0,.17-3.07a27.83,27.83,0,0,0-11.93,2.82l1.35,2.21-.85.52L36,21.9c-7,3.8-12.24,11-12.24,21.9s5.21,18,12.13,21.83l1.54-2.22.82.57-1.47,2.11A27.66,27.66,0,0,0,48.68,69v-2.8h1V69a27.81,27.81,0,0,0,12-2.89L60.26,64l.82-.57,1.54,2.21c6.91-3.83,12.1-11,12.1-21.82A26.37,26.37,0,0,0,71.75,31.18ZM27.3,30.34l2.26,1.51-.56.83-2.26-1.51Zm-3.44,13h3.31v1H23.86ZM27.3,57.24l-.56-.82,2.33-1.61.57.82Zm37.17-12c-.3.18-.42,1.81-1.13,1-.25-.28-.28-1-.53-1.14a95.2,95.2,0,0,0-10.55,0,13.12,13.12,0,0,1-1.35,1.51c-2.9,1.66-5.88-1-4.9-4.14.33-1.06,1.77-1.45,2-2.26l.45-13.57c-1.65-.33.34-3,.68-3.09.68-.21,1.09,2.21,2.49,1.89l-1.51,1.2c.44,4.12,0,8.76.45,12.81.22,1.92.33,1.24,1.36,2.41a5.39,5.39,0,0,1,.45,1.06c.42.42,9.82.21,11.23.23a.78.78,0,0,1,.75-.31,14.6,14.6,0,0,1,2.19,1.59C66.42,45.24,64.78,45,64.47,45.23Zm6.73,12-2.34-1.61.57-.82,2.33,1.61Zm.43-12.87v-1h3v1Zm.12-13.19-2.32,1.6L68.86,32l2.34-1.61.48.7a22.31,22.31,0,0,0-4.91-6.14,24.37,24.37,0,0,0-4.27-3L61.29,24l-.87-.5,1.19-2.05A27.41,27.41,0,0,0,49.8,18.62l-.16,3.12-1,0,.17-3.07a27.83,27.83,0,0,0-11.93,2.82l1.35,2.21-.85.52L36,21.9c-7,3.8-12.24,11-12.24,21.9s5.21,18,12.13,21.83l1.54-2.22.82.57-1.47,2.11A27.66,27.66,0,0,0,48.68,69v-2.8h1V69a27.81,27.81,0,0,0,12-2.89L60.26,64l.82-.57,1.54,2.21c6.91-3.83,12.1-11,12.1-21.82A26.37,26.37,0,0,0,71.75,31.18ZM27.3,30.34l2.26,1.51-.56.83-2.26-1.51Zm-3.44,13h3.31v1H23.86ZM27.3,57.24l-.56-.82,2.33-1.61.57.82Zm37.17-12c-.3.18-.42,1.81-1.13,1-.25-.28-.28-1-.53-1.14a95.2,95.2,0,0,0-10.55,0,13.12,13.12,0,0,1-1.35,1.51c-2.9,1.66-5.88-1-4.9-4.14.33-1.06,1.77-1.45,2-2.26l.45-13.57c-1.65-.33.34-3,.68-3.09.68-.21,1.09,2.21,2.49,1.89l-1.51,1.2c.44,4.12,0,8.76.45,12.81.22,1.92.33,1.24,1.36,2.41a5.39,5.39,0,0,1,.45,1.06c.42.42,9.82.21,11.23.23a.78.78,0,0,1,.75-.31,14.6,14.6,0,0,1,2.19,1.59C66.42,45.24,64.78,45,64.47,45.23Zm6.73,12-2.34-1.61.57-.82,2.33,1.61Zm.43-12.87v-1h3v1Zm.12-13.19-2.32,1.6L68.86,32l2.34-1.61.48.7a22.31,22.31,0,0,0-4.91-6.14,24.37,24.37,0,0,0-4.27-3L61.29,24l-.87-.5,1.19-2.05A27.41,27.41,0,0,0,49.8,18.62l-.16,3.12-1,0,.17-3.07a27.83,27.83,0,0,0-11.93,2.82l1.35,2.21-.85.52L36,21.9c-7,3.8-12.24,11-12.24,21.9s5.21,18,12.13,21.83l1.54-2.22.82.57-1.47,2.11A27.66,27.66,0,0,0,48.68,69v-2.8h1V69a27.81,27.81,0,0,0,12-2.89L60.26,64l.82-.57,1.54,2.21c6.91-3.83,12.1-11,12.1-21.82A26.37,26.37,0,0,0,71.75,31.18ZM27.3,30.34l2.26,1.51-.56.83-2.26-1.51Zm-3.44,13h3.31v1H23.86ZM27.3,57.24l-.56-.82,2.33-1.61.57.82Zm37.17-12c-.3.18-.42,1.81-1.13,1-.25-.28-.28-1-.53-1.14a95.2,95.2,0,0,0-10.55,0,13.12,13.12,0,0,1-1.35,1.51c-2.9,1.66-5.88-1-4.9-4.14.33-1.06,1.77-1.45,2-2.26l.45-13.57c-1.65-.33.34-3,.68-3.09.68-.21,1.09,2.21,2.49,1.89l-1.51,1.2c.44,4.12,0,8.76.45,12.81.22,1.92.33,1.24,1.36,2.41a5.39,5.39,0,0,1,.45,1.06c.42.42,9.82.21,11.23.23a.78.78,0,0,1,.75-.31,14.6,14.6,0,0,1,2.19,1.59C66.42,45.24,64.78,45,64.47,45.23Zm6.73,12-2.34-1.61.57-.82,2.33,1.61Zm.43-12.87v-1h3v1Zm.12-13.19-2.32,1.6L68.86,32l2.34-1.61.48.7a22.31,22.31,0,0,0-4.91-6.14,24.37,24.37,0,0,0-4.27-3L61.29,24l-.87-.5,1.19-2.05A27.41,27.41,0,0,0,49.8,18.62l-.16,3.12-1,0,.17-3.07a27.83,27.83,0,0,0-11.93,2.82l1.35,2.21-.85.52L36,21.9c-7,3.8-12.24,11-12.24,21.9s5.21,18,12.13,21.83l1.54-2.22.82.57-1.47,2.11A27.66,27.66,0,0,0,48.68,69v-2.8h1V69a27.81,27.81,0,0,0,12-2.89L60.26,64l.82-.57,1.54,2.21c6.91-3.83,12.1-11,12.1-21.82A26.37,26.37,0,0,0,71.75,31.18ZM27.3,30.34l2.26,1.51-.56.83-2.26-1.51Zm-3.44,13h3.31v1H23.86ZM27.3,57.24l-.56-.82,2.33-1.61.57.82Zm37.17-12c-.3.18-.42,1.81-1.13,1-.25-.28-.28-1-.53-1.14a95.2,95.2,0,0,0-10.55,0,13.12,13.12,0,0,1-1.35,1.51c-2.9,1.66-5.88-1-4.9-4.14.33-1.06,1.77-1.45,2-2.26l.45-13.57c-1.65-.33.34-3,.68-3.09.68-.21,1.09,2.21,2.49,1.89l-1.51,1.2c.44,4.12,0,8.76.45,12.81.22,1.92.33,1.24,1.36,2.41a5.39,5.39,0,0,1,.45,1.06c.42.42,9.82.21,11.23.23a.78.78,0,0,1,.75-.31,14.6,14.6,0,0,1,2.19,1.59C66.42,45.24,64.78,45,64.47,45.23Zm6.73,12-2.34-1.61.57-.82,2.33,1.61Zm.43-12.87v-1h3v1Zm.12-13.19-2.32,1.6L68.86,32l2.34-1.61.48.7a22.31,22.31,0,0,0-4.91-6.14,24.37,24.37,0,0,0-4.27-3L61.29,24l-.87-.5,1.19-2.05A27.41,27.41,0,0,0,49.8,18.62l-.16,3.12-1,0,.17-3.07a27.83,27.83,0,0,0-11.93,2.82l1.35,2.21-.85.52L36,21.9c-7,3.8-12.24,11-12.24,21.9s5.21,18,12.13,21.83l1.54-2.22.82.57-1.47,2.11A27.66,27.66,0,0,0,48.68,69v-2.8h1V69a27.81,27.81,0,0,0,12-2.89L60.26,64l.82-.57,1.54,2.21c6.91-3.83,12.1-11,12.1-21.82A26.37,26.37,0,0,0,71.75,31.18ZM27.3,30.34l2.26,1.51-.56.83-2.26-1.51Zm-3.44,13h3.31v1H23.86ZM27.3,57.24l-.56-.82,2.33-1.61.57.82Zm37.17-12c-.3.18-.42,1.81-1.13,1-.25-.28-.28-1-.53-1.14a95.2,95.2,0,0,0-10.55,0,13.12,13.12,0,0,1-1.35,1.51c-2.9,1.66-5.88-1-4.9-4.14.33-1.06,1.77-1.45,2-2.26l.45-13.57c-1.65-.33.34-3,.68-3.09.68-.21,1.09,2.21,2.49,1.89l-1.51,1.2c.44,4.12,0,8.76.45,12.81.22,1.92.33,1.24,1.36,2.41a5.39,5.39,0,0,1,.45,1.06c.42.42,9.82.21,11.23.23a.78.78,0,0,1,.75-.31,14.6,14.6,0,0,1,2.19,1.59C66.42,45.24,64.78,45,64.47,45.23Zm6.73,12-2.34-1.61.57-.82,2.33,1.61Zm.43-12.87v-1h3v1Zm.12-13.19-2.32,1.6L68.86,32l2.34-1.61.48.7a22.31,22.31,0,0,0-4.91-6.14,24.37,24.37,0,0,0-4.27-3L61.29,24l-.87-.5,1.19-2.05A27.41,27.41,0,0,0,49.8,18.62l-.16,3.12-1,0,.17-3.07a27.83,27.83,0,0,0-11.93,2.82l1.35,2.21-.85.52L36,21.9c-7,3.8-12.24,11-12.24,21.9s5.21,18,12.13,21.83l1.54-2.22.82.57-1.47,2.11A27.66,27.66,0,0,0,48.68,69v-2.8h1V69a27.81,27.81,0,0,0,12-2.89L60.26,64l.82-.57,1.54,2.21c6.91-3.83,12.1-11,12.1-21.82A26.37,26.37,0,0,0,71.75,31.18ZM27.3,30.34l2.26,1.51-.56.83-2.26-1.51Zm-3.44,13h3.31v1H23.86ZM27.3,57.24l-.56-.82,2.33-1.61.57.82Zm37.17-12c-.3.18-.42,1.81-1.13,1-.25-.28-.28-1-.53-1.14a95.2,95.2,0,0,0-10.55,0,13.12,13.12,0,0,1-1.35,1.51c-2.9,1.66-5.88-1-4.9-4.14.33-1.06,1.77-1.45,2-2.26l.45-13.57c-1.65-.33.34-3,.68-3.09.68-.21,1.09,2.21,2.49,1.89l-1.51,1.2c.44,4.12,0,8.76.45,12.81.22,1.92.33,1.24,1.36,2.41a5.39,5.39,0,0,1,.45,1.06c.42.42,9.82.21,11.23.23a.78.78,0,0,1,.75-.31,14.6,14.6,0,0,1,2.19,1.59C66.42,45.24,64.78,45,64.47,45.23Zm6.73,12-2.34-1.61.57-.82,2.33,1.61Zm.43-12.87v-1h3v1Zm.12-13.19-2.32,1.6L68.86,32l2.34-1.61.48.7a22.31,22.31,0,0,0-4.91-6.14,24.37,24.37,0,0,0-4.27-3L61.29,24l-.87-.5,1.19-2.05A27.41,27.41,0,0,0,49.8,18.62l-.16,3.12-1,0,.17-3.07a27.83,27.83,0,0,0-11.93,2.82l1.35,2.21-.85.52L36,21.9c-7,3.8-12.24,11-12.24,21.9s5.21,18,12.13,21.83l1.54-2.22.82.57-1.47,2.11A27.66,27.66,0,0,0,48.68,69v-2.8h1V69a27.81,27.81,0,0,0,12-2.89L60.26,64l.82-.57,1.54,2.21c6.91-3.83,12.1-11,12.1-21.82A26.37,26.37,0,0,0,71.75,31.18ZM27.3,30.34l2.26,1.51-.56.83-2.26-1.51Zm-3.44,13h3.31v1H23.86ZM27.3,57.24l-.56-.82,2.33-1.61.57.82Zm37.17-12c-.3.18-.42,1.81-1.13,1-.25-.28-.28-1-.53-1.14a95.2,95.2,0,0,0-10.55,0,13.12,13.12,0,0,1-1.35,1.51c-2.9,1.66-5.88-1-4.9-4.14.33-1.06,1.77-1.45,2-2.26l.45-13.57c-1.65-.33.34-3,.68-3.09.68-.21,1.09,2.21,2.49,1.89l-1.51,1.2c.44,4.12,0,8.76.45,12.81.22,1.92.33,1.24,1.36,2.41a5.39,5.39,0,0,1,.45,1.06c.42.42,9.82.21,11.23.23a.78.78,0,0,1,.75-.31,14.6,14.6,0,0,1,2.19,1.59C66.42,45.24,64.78,45,64.47,45.23Zm6.73,12-2.34-1.61.57-.82,2.33,1.61Zm.43-12.87v-1h3v1Zm.12-13.19-2.32,1.6L68.86,32l2.34-1.61.48.7a22.31,22.31,0,0,0-4.91-6.14,24.37,24.37,0,0,0-4.27-3L61.29,24l-.87-.5,1.19-2.05A27.41,27.41,0,0,0,49.8,18.62l-.16,3.12-1,0,.17-3.07a27.83,27.83,0,0,0-11.93,2.82l1.35,2.21-.85.52L36,21.9c-7,3.8-12.24,11-12.24,21.9s5.21,18,12.13,21.83l1.54-2.22.82.57-1.47,2.11A27.66,27.66,0,0,0,48.68,69v-2.8h1V69a27.81,27.81,0,0,0,12-2.89L60.26,64l.82-.57,1.54,2.21c6.91-3.83,12.1-11,12.1-21.82A26.37,26.37,0,0,0,71.75,31.18ZM27.3,30.34l2.26,1.51-.56.83-2.26-1.51Zm-3.44,13h3.31v1H23.86ZM27.3,57.24l-.56-.82,2.33-1.61.57.82Zm37.17-12c-.3.18-.42,1.81-1.13,1-.25-.28-.28-1-.53-1.14a95.2,95.2,0,0,0-10.55,0,13.12,13.12,0,0,1-1.35,1.51c-2.9,1.66-5.88-1-4.9-4.14.33-1.06,1.77-1.45,2-2.26l.45-13.57c-1.65-.33.34-3,.68-3.09.68-.21,1.09,2.21,2.49,1.89l-1.51,1.2c.44,4.12,0,8.76.45,12.81.22,1.92.33,1.24,1.36,2.41a5.39,5.39,0,0,1,.45,1.06c.42.42,9.82.21,11.23.23a.78.78,0,0,1,.75-.31,14.6,14.6,0,0,1,2.19,1.59C66.42,45.24,64.78,45,64.47,45.23Zm6.73,12-2.34-1.61.57-.82,2.33,1.61Zm.43-12.87v-1h3v1Zm.12-13.19-2.32,1.6L68.86,32l2.34-1.61.48.7a22.31,22.31,0,0,0-4.91-6.14,24.37,24.37,0,0,0-4.27-3L61.29,24l-.87-.5,1.19-2.05A27.41,27.41,0,0,0,49.8,18.62l-.16,3.12-1,0,.17-3.07a27.83,27.83,0,0,0-11.93,2.82l1.35,2.21-.85.52L36,21.9c-7,3.8-12.24,11-12.24,21.9s5.21,18,12.13,21.83l1.54-2.22.82.57-1.47,2.11A27.66,27.66,0,0,0,48.68,69v-2.8h1V69a27.81,27.81,0,0,0,12-2.89L60.26,64l.82-.57,1.54,2.21c6.91-3.83,12.1-11,12.1-21.82A26.37,26.37,0,0,0,71.75,31.18ZM27.3,30.34l2.26,1.51-.56.83-2.26-1.51Zm-3.44,13h3.31v1H23.86ZM27.3,57.24l-.56-.82,2.33-1.61.57.82Zm37.17-12c-.3.18-.42,1.81-1.13,1-.25-.28-.28-1-.53-1.14a95.2,95.2,0,0,0-10.55,0,13.12,13.12,0,0,1-1.35,1.51c-2.9,1.66-5.88-1-4.9-4.14.33-1.06,1.77-1.45,2-2.26l.45-13.57c-1.65-.33.34-3,.68-3.09.68-.21,1.09,2.21,2.49,1.89l-1.51,1.2c.44,4.12,0,8.76.45,12.81.22,1.92.33,1.24,1.36,2.41a5.39,5.39,0,0,1,.45,1.06c.42.42,9.82.21,11.23.23a.78.78,0,0,1,.75-.31,14.6,14.6,0,0,1,2.19,1.59C66.42,45.24,64.78,45,64.47,45.23Zm6.73,12-2.34-1.61.57-.82,2.33,1.61Zm.43-12.87v-1h3v1Zm.12-13.19-2.32,1.6L68.86,32l2.34-1.61.48.7a22.31,22.31,0,0,0-4.91-6.14,24.37,24.37,0,0,0-4.27-3L61.29,24l-.87-.5,1.19-2.05A27.41,27.41,0,0,0,49.8,18.62l-.16,3.12-1,0,.17-3.07a27.83,27.83,0,0,0-11.93,2.82l1.35,2.21-.85.52L36,21.9c-7,3.8-12.24,11-12.24,21.9s5.21,18,12.13,21.83l1.54-2.22.82.57-1.47,2.11A27.66,27.66,0,0,0,48.68,69v-2.8h1V69a27.81,27.81,0,0,0,12-2.89L60.26,64l.82-.57,1.54,2.21c6.91-3.83,12.1-11,12.1-21.82A26.37,26.37,0,0,0,71.75,31.18ZM27.3,30.34l2.26,1.51-.56.83-2.26-1.51Zm-3.44,13h3.31v1H23.86ZM27.3,57.24l-.56-.82,2.33-1.61.57.82Zm37.17-12c-.3.18-.42,1.81-1.13,1-.25-.28-.28-1-.53-1.14a95.2,95.2,0,0,0-10.55,0,13.12,13.12,0,0,1-1.35,1.51c-2.9,1.66-5.88-1-4.9-4.14.33-1.06,1.77-1.45,2-2.26l.45-13.57c-1.65-.33.34-3,.68-3.09.68-.21,1.09,2.21,2.49,1.89l-1.51,1.2c.44,4.12,0,8.76.45,12.81.22,1.92.33,1.24,1.36,2.41a5.39,5.39,0,0,1,.45,1.06c.42.42,9.82.21,11.23.23a.78.78,0,0,1,.75-.31,14.6,14.6,0,0,1,2.19,1.59C66.42,45.24,64.78,45,64.47,45.23Zm6.73,12-2.34-1.61.57-.82,2.33,1.61Zm.43-12.87v-1h3v1Zm.12-13.19-2.32,1.6L68.86,32l2.34-1.61.48.7a22.31,22.31,0,0,0-4.91-6.14,24.37,24.37,0,0,0-4.27-3L61.29,24l-.87-.5,1.19-2.05A27.41,27.41,0,0,0,49.8,18.62l-.16,3.12-1,0,.17-3.07a27.83,27.83,0,0,0-11.93,2.82l1.35,2.21-.85.52L36,21.9c-7,3.8-12.24,11-12.24,21.9s5.21,18,12.13,21.83l1.54-2.22.82.57-1.47,2.11A27.66,27.66,0,0,0,48.68,69v-2.8h1V69a27.81,27.81,0,0,0,12-2.89L60.26,64l.82-.57,1.54,2.21c6.91-3.83,12.1-11,12.1-21.82A26.37,26.37,0,0,0,71.75,31.18ZM27.3,30.34l2.26,1.51-.56.83-2.26-1.51Zm-3.44,13h3.31v1H23.86ZM27.3,57.24l-.56-.82,2.33-1.61.57.82Zm37.17-12c-.3.18-.42,1.81-1.13,1-.25-.28-.28-1-.53-1.14a95.2,95.2,0,0,0-10.55,0,13.12,13.12,0,0,1-1.35,1.51c-2.9,1.66-5.88-1-4.9-4.14.33-1.06,1.77-1.45,2-2.26l.45-13.57c-1.65-.33.34-3,.68-3.09.68-.21,1.09,2.21,2.49,1.89l-1.51,1.2c.44,4.12,0,8.76.45,12.81.22,1.92.33,1.24,1.36,2.41a5.39,5.39,0,0,1,.45,1.06c.42.42,9.82.21,11.23.23a.78.78,0,0,1,.75-.31,14.6,14.6,0,0,1,2.19,1.59C66.42,45.24,64.78,45,64.47,45.23Zm6.73,12-2.34-1.61.57-.82,2.33,1.61Zm.43-12.87v-1h3v1Zm.12-13.19-2.32,1.6L68.86,32l2.34-1.61.48.7a22.31,22.31,0,0,0-4.91-6.14,24.37,24.37,0,0,0-4.27-3L61.29,24l-.87-.5,1.19-2.05A27.41,27.41,0,0,0,49.8,18.62l-.16,3.12-1,0,.17-3.07a27.83,27.83,0,0,0-11.93,2.82l1.35,2.21-.85.52L36,21.9c-7,3.8-12.24,11-12.24,21.9s5.21,18,12.13,21.83l1.54-2.22.82.57-1.47,2.11A27.66,27.66,0,0,0,48.68,69v-2.8h1V69a27.81,27.81,0,0,0,12-2.89L60.26,64l.82-.57,1.54,2.21c6.91-3.83,12.1-11,12.1-21.82A26.37,26.37,0,0,0,71.75,31.18ZM27.3,30.34l2.26,1.51-.56.83-2.26-1.51Zm-3.44,13h3.31v1H23.86ZM27.3,57.24l-.56-.82,2.33-1.61.57.82Zm37.17-12c-.3.18-.42,1.81-1.13,1-.25-.28-.28-1-.53-1.14a95.2,95.2,0,0,0-10.55,0,13.12,13.12,0,0,1-1.35,1.51c-2.9,1.66-5.88-1-4.9-4.14.33-1.06,1.77-1.45,2-2.26l.45-13.57c-1.65-.33.34-3,.68-3.09.68-.21,1.09,2.21,2.49,1.89l-1.51,1.2c.44,4.12,0,8.76.45,12.81.22,1.92.33,1.24,1.36,2.41a5.39,5.39,0,0,1,.45,1.06c.42.42,9.82.21,11.23.23a.78.78,0,0,1,.75-.31,14.6,14.6,0,0,1,2.19,1.59C66.42,45.24,64.78,45,64.47,45.23Zm6.73,12-2.34-1.61.57-.82,2.33,1.61Zm.43-12.87v-1h3v1Zm.12-13.19-2.32,1.6L68.86,32l2.34-1.61.48.7a22.31,22.31,0,0,0-4.91-6.14,24.37,24.37,0,0,0-4.27-3L61.29,24l-.87-.5,1.19-2.05A27.41,27.41,0,0,0,49.8,18.62l-.16,3.12-1,0,.17-3.07a27.83,27.83,0,0,0-11.93,2.82l1.35,2.21-.85.52L36,21.9c-7,3.8-12.24,11-12.24,21.9s5.21,18,12.13,21.83l1.54-2.22.82.57-1.47,2.11A27.66,27.66,0,0,0,48.68,69v-2.8h1V69a27.81,27.81,0,0,0,12-2.89L60.26,64l.82-.57,1.54,2.21c6.91-3.83,12.1-11,12.1-21.82A26.37,26.37,0,0,0,71.75,31.18ZM27.3,30.34l2.26,1.51-.56.83-2.26-1.51Zm-3.44,13h3.31v1H23.86ZM27.3,57.24l-.56-.82,2.33-1.61.57.82Zm37.17-12c-.3.18-.42,1.81-1.13,1-.25-.28-.28-1-.53-1.14a95.2,95.2,0,0,0-10.55,0,13.12,13.12,0,0,1-1.35,1.51c-2.9,1.66-5.88-1-4.9-4.14.33-1.06,1.77-1.45,2-2.26l.45-13.57c-1.65-.33.34-3,.68-3.09.68-.21,1.09,2.21,2.49,1.89l-1.51,1.2c.44,4.12,0,8.76.45,12.81.22,1.92.33,1.24,1.36,2.41a5.39,5.39,0,0,1,.45,1.06c.42.42,9.82.21,11.23.23a.78.78,0,0,1,.75-.31,14.6,14.6,0,0,1,2.19,1.59C66.42,45.24,64.78,45,64.47,45.23Zm6.73,12-2.34-1.61.57-.82,2.33,1.61Zm.43-12.87v-1h3v1Zm.12-13.19-2.32,1.6L68.86,32l2.34-1.61.48.7a22.31,22.31,0,0,0-4.91-6.14,24.37,24.37,0,0,0-4.27-3L61.29,24l-.87-.5,1.19-2.05A27.41,27.41,0,0,0,49.8,18.62l-.16,3.12-1,0,.17-3.07a27.83,27.83,0,0,0-11.93,2.82l1.35,2.21-.85.52L36,21.9c-7,3.8-12.24,11-12.24,21.9s5.21,18,12.13,21.83l1.54-2.22.82.57-1.47,2.11A27.66,27.66,0,0,0,48.68,69v-2.8h1V69a27.81,27.81,0,0,0,12-2.89L60.26,64l.82-.57,1.54,2.21c6.91-3.83,12.1-11,12.1-21.82A26.37,26.37,0,0,0,71.75,31.18ZM27.3,30.34l2.26,1.51-.56.83-2.26-1.51Zm-3.44,13h3.31v1H23.86ZM27.3,57.24l-.56-.82,2.33-1.61.57.82Zm37.17-12c-.3.18-.42,1.81-1.13,1-.25-.28-.28-1-.53-1.14a95.2,95.2,0,0,0-10.55,0,13.12,13.12,0,0,1-1.35,1.51c-2.9,1.66-5.88-1-4.9-4.14.33-1.06,1.77-1.45,2-2.26l.45-13.57c-1.65-.33.34-3,.68-3.09.68-.21,1.09,2.21,2.49,1.89l-1.51,1.2c.44,4.12,0,8.76.45,12.81.22,1.92.33,1.24,1.36,2.41a5.39,5.39,0,0,1,.45,1.06c.42.42,9.82.21,11.23.23a.78.78,0,0,1,.75-.31,14.6,14.6,0,0,1,2.19,1.59C66.42,45.24,64.78,45,64.47,45.23Zm6.73,12-2.34-1.61.57-.82,2.33,1.61Zm.43-12.87v-1h3v1Zm.12-13.19-2.32,1.6L68.86,32l2.34-1.61.48.7a22.31,22.31,0,0,0-4.91-6.14,24.37,24.37,0,0,0-4.27-3L61.29,24l-.87-.5,1.19-2.05A27.41,27.41,0,0,0,49.8,18.62l-.16,3.12-1,0,.17-3.07a27.83,27.83,0,0,0-11.93,2.82l1.35,2.21-.85.52L36,21.9c-7,3.8-12.24,11-12.24,21.9s5.21,18,12.13,21.83l1.54-2.22.82.57-1.47,2.11A27.66,27.66,0,0,0,48.68,69v-2.8h1V69a27.81,27.81,0,0,0,12-2.89L60.26,64l.82-.57,1.54,2.21c6.91-3.83,12.1-11,12.1-21.82A26.37,26.37,0,0,0,71.75,31.18ZM27.3,30.34l2.26,1.51-.56.83-2.26-1.51Zm-3.44,13h3.31v1H23.86ZM27.3,57.24l-.56-.82,2.33-1.61.57.82Zm37.17-12c-.3.18-.42,1.81-1.13,1-.25-.28-.28-1-.53-1.14a95.2,95.2,0,0,0-10.55,0,13.12,13.12,0,0,1-1.35,1.51c-2.9,1.66-5.88-1-4.9-4.14.33-1.06,1.77-1.45,2-2.26l.45-13.57c-1.65-.33.34-3,.68-3.09.68-.21,1.09,2.21,2.49,1.89l-1.51,1.2c.44,4.12,0,8.76.45,12.81.22,1.92.33,1.24,1.36,2.41a5.39,5.39,0,0,1,.45,1.06c.42.42,9.82.21,11.23.23a.78.78,0,0,1,.75-.31,14.6,14.6,0,0,1,2.19,1.59C66.42,45.24,64.78,45,64.47,45.23Zm6.73,12-2.34-1.61.57-.82,2.33,1.61Zm.43-12.87v-1h3v1Zm.12-13.19-2.32,1.6L68.86,32l2.34-1.61.48.7a22.31,22.31,0,0,0-4.91-6.14,24.37,24.37,0,0,0-4.27-3L61.29,24l-.87-.5,1.19-2.05A27.41,27.41,0,0,0,49.8,18.62l-.16,3.12-1,0,.17-3.07a27.83,27.83,0,0,0-11.93,2.82l1.35,2.21-.85.52L36,21.9c-7,3.8-12.24,11-12.24,21.9s5.21,18,12.13,21.83l1.54-2.22.82.57-1.47,2.11A27.66,27.66,0,0,0,48.68,69v-2.8h1V69a27.81,27.81,0,0,0,12-2.89L60.26,64l.82-.57,1.54,2.21c6.91-3.83,12.1-11,12.1-21.82A26.37,26.37,0,0,0,71.75,31.18ZM27.3,30.34l2.26,1.51-.56.83-2.26-1.51Zm-3.44,13h3.31v1H23.86ZM27.3,57.24l-.56-.82,2.33-1.61.57.82Zm37.17-12c-.3.18-.42,1.81-1.13,1-.25-.28-.28-1-.53-1.14a95.2,95.2,0,0,0-10.55,0,13.12,13.12,0,0,1-1.35,1.51c-2.9,1.66-5.88-1-4.9-4.14.33-1.06,1.77-1.45,2-2.26l.45-13.57c-1.65-.33.34-3,.68-3.09.68-.21,1.09,2.21,2.49,1.89l-1.51,1.2c.44,4.12,0,8.76.45,12.81.22,1.92.33,1.24,1.36,2.41a5.39,5.39,0,0,1,.45,1.06c.42.42,9.82.21,11.23.23a.78.78,0,0,1,.75-.31,14.6,14.6,0,0,1,2.19,1.59C66.42,45.24,64.78,45,64.47,45.23Zm6.73,12-2.34-1.61.57-.82,2.33,1.61Zm.43-12.87v-1h3v1Z"/></svg>