<svg id="Camada_1" data-name="Camada 1" xmlns="http://www.w3.org/2000/svg" viewBox="0 0 98.59 86.99"><defs><style>.cls-1{fill:#fff;}</style></defs><title>Prancheta 31</title><g id="Objeto_generativo" data-name="Objeto generativo"><path class="cls-1" d="M27.24,39.74A5.06,5.06,0,0,1,28.17,34a5.62,5.62,0,0,1-.56,5.71l-.14-1.64Z"/><path class="cls-1" d="M32.94,47.69a5.07,5.07,0,0,1-1.21,6.64c-.6-1.31.18-2.72.51-4a6.46,6.46,0,0,0-1.17,3.23C29.47,51.58,31.07,48.86,32.94,47.69Z"/><path class="cls-1" d="M34.81,51.43a5,5,0,0,1,.75,6.92c-.46.11-1-3.41-.61-3.79-.29-.12-.35.73-.37.94a11,11,0,0,0,.14,2.29C32.39,56.41,33.22,53.07,34.81,51.43Z"/><path class="cls-1" d="M38.27,54.33c2.31,1.45,4,4.15,2.53,6.82a7.7,7.7,0,0,1-1.69-4A7.17,7.17,0,0,0,40,60.92C37.21,60.23,37,56.44,38.27,54.33Z"/><path class="cls-1" d="M35.61,66.53c.6-1.92,2.25-3.89,4.35-4.16.29,0,2.59,0,2.57.33l-4,2.19L43,63.16C41.8,66.21,38.65,67.14,35.61,66.53Z"/><path class="cls-1" d="M43.74,66.44l3.79-2.67c0,3.53-3.15,4.85-6.17,5.33a5.46,5.46,0,0,1,5.7-5.8Z"/><path class="cls-1" d="M57.3,69c-.09.31-2.72-.48-3-.61A4.85,4.85,0,0,1,51,63.77l3.79,2.76L51.27,63.3C54.86,63.27,57,65.51,57.3,69Z"/><path class="cls-1" d="M41.83,30.67,40.1,26.88l9-5.47a24,24,0,0,1,4.63.14v26l4.49.18-.05,4.82-15.66-.14V47.73l4.58-.18V27.72Z"/><path class="cls-1" d="M60.16,54.33c1.44,2,1.05,6-1.73,6.59a7.13,7.13,0,0,0,1-3.69c-.42,1.35-.69,2.93-1.78,3.92C56.25,58.43,58,55.89,60.16,54.33Z"/><path class="cls-1" d="M63.85,58l-.23-3.74a10,10,0,0,1-.52,4.07c-2.11-1.92-1.24-5,.52-6.87A4.46,4.46,0,0,1,63.85,58Z"/><path class="cls-1" d="M65.39,47.69c2.13,1,3.54,3.86,2.06,6a6.44,6.44,0,0,0-1.26-3.32,5.83,5.83,0,0,1,.61,4C64.55,52.69,64.41,50.12,65.39,47.69Z"/><path class="cls-1" d="M69.69,48.44a7.87,7.87,0,0,0-1.63-3.14c.5,1.18,1.31,2.34,1.17,3.7a4.84,4.84,0,0,1-2.34-6.27C69.07,43.75,70.8,46,69.69,48.44Z"/><path class="cls-1" d="M70.16,33.94a4.93,4.93,0,0,1,.94,5.89l-.24-2.48,0,2.11C69.33,38.14,69.61,35.66,70.16,33.94Z"/><path class="cls-1" d="M71,41.89a4.56,4.56,0,0,1,3.84-3.55c.24,2.23-.9,4.88-3.42,5l1.92-3c-2.41,1.55-2.24,3.79-2.66,6.32a5.64,5.64,0,0,1,4.67-1.78c-.59,2.49-2.28,4.79-5.14,4.49L73,46.61c-2.67,1.09-3.16,3.13-4.2,5.52l.18.09c1.32-1.41,3.5-1.37,5.19-.79-.85,2.17-3.81,4.14-6.22,2.94l3.51-2a21.42,21.42,0,0,0-3,1.13A24.82,24.82,0,0,0,66,56.43c0,.07,0,.2,0,.24a5.17,5.17,0,0,1,5.66.6c-1.93,1.83-4.94,3-7.3,1.22l3.88-1.08-3.55.38-2.95,2.29a5.88,5.88,0,0,1,6.08,2.34c-2.55,1.36-5.77,1.57-7.71-.89l.09-.19,4.53.33a22.17,22.17,0,0,0-4-.8c-1.2,0-2.79,1.25-4.07,1.45a6.46,6.46,0,0,1,4,1c.49.36,2.26,2.69,2.19,3.14s-2.35.27-2.75.23a5.49,5.49,0,0,1-3.89-2.1c-.09-.14-.91-1.5-.6-1.55l4.25,1.73a17.46,17.46,0,0,0-1.54-1C55.2,62,54.87,62.93,51.55,63s-7.39,0-10.57-.93c-.73-.23-2.27-1.13-2.8-1.22-1.09-.17-3.24.65-4.4.75l4.63-.14c-2,2.47-5.09,2.32-7.71,1-.31-.48,2.21-2.08,2.71-2.24a6.66,6.66,0,0,1,3.23-.14c-.64-.16-2.71-2.39-3-2.48s0,.2-.09.19a16.71,16.71,0,0,0-3.74-.28c.47.11,4.14.62,4.16,1-2.41,1.79-5.26.67-7.2-1.22a5.2,5.2,0,0,1,6-.46c-1.67-2.14-2.75-4-5.75-4.35l3.41,1.91c-2.45,1.2-5.12-.79-6.26-2.89a5.11,5.11,0,0,1,5.24.65l.18-.09c-.91-1.8-.91-3.1-2.57-4.45-.3-.24-1.15-.88-1.54-.79l2.71,2.62c-2.82.37-4.53-2.09-5.1-4.54A5.6,5.6,0,0,1,27.94,47c-.65-1.51-.25-3.24-1-4.68a12.34,12.34,0,0,0-1.82-2c.18.45,2.11,2.71,1.91,3-2.51-.13-3.52-2.75-3.46-5a4.73,4.73,0,0,1,4,3.42c.27-2.19,2.14-3.26,4.16-3.51-.11,2.19-1.26,4.68-3.74,4.86l1.64-2.76c-2.76,2.08-1.84,4.22-1.17,7.06.06.28-.23.39.18.56a4.29,4.29,0,0,1,.66-3.46c.22-.3,2.26-2.16,2.52-1.68.49,2.42.06,5.16-2.52,6.08-.09-1.37.81-2.45,1.17-3.69-.64,1-1.76,2.53-1.64,3.78.23,2.39,3.89,7.34,5.75,8.93,7.2,6.17,22.11,6.14,29.32,0A21.05,21.05,0,0,0,70.68,45c.27-2.38-.14-3.31-2-4.81a16.84,16.84,0,0,1,1.91,2.94c-2.43-.12-3.65-2.66-3.83-4.86C68.83,38.55,70.68,39.67,71,41.89Z"/><path class="cls-1" d="M48.19,8.69C19.88,9.63,4.08,42.6,21.58,65.22a35.06,35.06,0,0,0,58.64-4.95C92.83,36.57,74.85,7.81,48.19,8.69ZM72.08,63.35a30.06,30.06,0,0,1-49.47-5.7c-10-19.1,3.41-42.73,24.83-43.91C73.71,12.29,89.48,43.18,72.08,63.35Z"/><path class="cls-1" d="M27.24,39.74A5.06,5.06,0,0,1,28.17,34a5.62,5.62,0,0,1-.56,5.71l-.14-1.64Z"/><path class="cls-1" d="M32.94,47.69a5.07,5.07,0,0,1-1.21,6.64c-.6-1.31.18-2.72.51-4a6.46,6.46,0,0,0-1.17,3.23C29.47,51.58,31.07,48.86,32.94,47.69Z"/><path class="cls-1" d="M34.81,51.43a5,5,0,0,1,.75,6.92c-.46.11-1-3.41-.61-3.79-.29-.12-.35.73-.37.94a11,11,0,0,0,.14,2.29C32.39,56.41,33.22,53.07,34.81,51.43Z"/><path class="cls-1" d="M38.27,54.33c2.31,1.45,4,4.15,2.53,6.82a7.7,7.7,0,0,1-1.69-4A7.17,7.17,0,0,0,40,60.92C37.21,60.23,37,56.44,38.27,54.33Z"/><path class="cls-1" d="M35.61,66.53c.6-1.92,2.25-3.89,4.35-4.16.29,0,2.59,0,2.57.33l-4,2.19L43,63.16C41.8,66.21,38.65,67.14,35.61,66.53Z"/><path class="cls-1" d="M43.74,66.44l3.79-2.67c0,3.53-3.15,4.85-6.17,5.33a5.46,5.46,0,0,1,5.7-5.8Z"/><path class="cls-1" d="M57.3,69c-.09.31-2.72-.48-3-.61A4.85,4.85,0,0,1,51,63.77l3.79,2.76L51.27,63.3C54.86,63.27,57,65.51,57.3,69Z"/><path class="cls-1" d="M41.83,30.67,40.1,26.88l9-5.47a24,24,0,0,1,4.63.14v26l4.49.18-.05,4.82-15.66-.14V47.73l4.58-.18V27.72Z"/><path class="cls-1" d="M60.16,54.33c1.44,2,1.05,6-1.73,6.59a7.13,7.13,0,0,0,1-3.69c-.42,1.35-.69,2.93-1.78,3.92C56.25,58.43,58,55.89,60.16,54.33Z"/><path class="cls-1" d="M63.85,58l-.23-3.74a10,10,0,0,1-.52,4.07c-2.11-1.92-1.24-5,.52-6.87A4.46,4.46,0,0,1,63.85,58Z"/><path class="cls-1" d="M65.39,47.69c2.13,1,3.54,3.86,2.06,6a6.44,6.44,0,0,0-1.26-3.32,5.83,5.83,0,0,1,.61,4C64.55,52.69,64.41,50.12,65.39,47.69Z"/><path class="cls-1" d="M69.69,48.44a7.87,7.87,0,0,0-1.63-3.14c.5,1.18,1.31,2.34,1.17,3.7a4.84,4.84,0,0,1-2.34-6.27C69.07,43.75,70.8,46,69.69,48.44Z"/><path class="cls-1" d="M70.82,39.46c-1.49-1.32-1.21-3.8-.66-5.52a4.93,4.93,0,0,1,.94,5.89l-.24-2.48Z"/><path class="cls-1" d="M74.18,51.43c-.85,2.17-3.81,4.14-6.22,2.94l3.51-2a21.42,21.42,0,0,0-3,1.13A24.82,24.82,0,0,0,66,56.43c0,.07,0,.2,0,.24a5.17,5.17,0,0,1,5.66.6c-1.93,1.83-4.94,3-7.3,1.22l3.88-1.08-3.55.38-2.95,2.29a5.88,5.88,0,0,1,6.08,2.34c-2.55,1.36-5.77,1.57-7.71-.89l.09-.19,4.53.33a22.17,22.17,0,0,0-4-.8c-1.2,0-2.79,1.25-4.07,1.45a6.46,6.46,0,0,1,4,1c.49.36,2.26,2.69,2.19,3.14s-2.35.27-2.75.23a5.49,5.49,0,0,1-3.89-2.1c-.09-.14-.91-1.5-.6-1.55l4.25,1.73a17.46,17.46,0,0,0-1.54-1C55.2,62,54.87,62.93,51.55,63s-7.39,0-10.57-.93c-.73-.23-2.27-1.13-2.8-1.22-1.09-.17-3.24.65-4.4.75l4.63-.14c-2,2.47-5.09,2.32-7.71,1-.31-.48,2.21-2.08,2.71-2.24a6.66,6.66,0,0,1,3.23-.14c-.64-.16-2.71-2.39-3-2.48s0,.2-.09.19a16.71,16.71,0,0,0-3.74-.28c.47.11,4.14.62,4.16,1-2.41,1.79-5.26.67-7.2-1.22a5.2,5.2,0,0,1,6-.46c-1.67-2.14-2.75-4-5.75-4.35l3.41,1.91c-2.45,1.2-5.12-.79-6.26-2.89a5.11,5.11,0,0,1,5.24.65l.18-.09c-.91-1.8-.91-3.1-2.57-4.45-.3-.24-1.15-.88-1.54-.79l2.71,2.62c-2.82.37-4.53-2.09-5.1-4.54A5.6,5.6,0,0,1,27.94,47c-.65-1.51-.25-3.24-1-4.68a12.34,12.34,0,0,0-1.82-2c.18.45,2.11,2.71,1.91,3-2.51-.13-3.52-2.75-3.46-5a4.73,4.73,0,0,1,4,3.42c.27-2.19,2.14-3.26,4.16-3.51-.11,2.19-1.26,4.68-3.74,4.86l1.64-2.76c-2.76,2.08-1.84,4.22-1.17,7.06.06.28-.23.39.18.56a4.29,4.29,0,0,1,.66-3.46c.22-.3,2.26-2.16,2.52-1.68.49,2.42.06,5.16-2.52,6.08-.09-1.37.81-2.45,1.17-3.69-.64,1-1.76,2.53-1.64,3.78.23,2.39,3.89,7.34,5.75,8.93,7.2,6.17,22.11,6.14,29.32,0A21.05,21.05,0,0,0,70.68,45c.27-2.38-.14-3.31-2-4.81a16.84,16.84,0,0,1,1.91,2.94c-2.43-.12-3.65-2.66-3.83-4.86,2.08.26,3.93,1.38,4.25,3.6a4.56,4.56,0,0,1,3.84-3.55c.24,2.23-.9,4.88-3.42,5l1.92-3c-2.41,1.55-2.24,3.79-2.66,6.32a5.64,5.64,0,0,1,4.67-1.78c-.59,2.49-2.28,4.79-5.14,4.49L73,46.61c-2.67,1.09-3.16,3.13-4.2,5.52l.18.09C70.31,50.81,72.49,50.85,74.18,51.43Z"/><path class="cls-1" d="M58.24,47.73l-.05,4.82-15.66-.14V47.73l4.58-.18V27.72l-5.28,3L40.1,26.88l9-5.47a24,24,0,0,1,4.63.14v26Z"/><path class="cls-1" d="M74.18,51.43c-.85,2.17-3.81,4.14-6.22,2.94l3.51-2a21.42,21.42,0,0,0-3,1.13A24.82,24.82,0,0,0,66,56.43c0,.07,0,.2,0,.24a5.17,5.17,0,0,1,5.66.6c-1.93,1.83-4.94,3-7.3,1.22l3.88-1.08-3.55.38-2.95,2.29a5.88,5.88,0,0,1,6.08,2.34c-2.55,1.36-5.77,1.57-7.71-.89l.09-.19,4.53.33a22.17,22.17,0,0,0-4-.8c-1.2,0-2.79,1.25-4.07,1.45a6.46,6.46,0,0,1,4,1c.49.36,2.26,2.69,2.19,3.14s-2.35.27-2.75.23a5.49,5.49,0,0,1-3.89-2.1c-.09-.14-.91-1.5-.6-1.55l4.25,1.73a17.46,17.46,0,0,0-1.54-1C55.2,62,54.87,62.93,51.55,63s-7.39,0-10.57-.93c-.73-.23-2.27-1.13-2.8-1.22-1.09-.17-3.24.65-4.4.75l4.63-.14c-2,2.47-5.09,2.32-7.71,1-.31-.48,2.21-2.08,2.71-2.24a6.66,6.66,0,0,1,3.23-.14c-.64-.16-2.71-2.39-3-2.48s0,.2-.09.19a16.71,16.71,0,0,0-3.74-.28c.47.11,4.14.62,4.16,1-2.41,1.79-5.26.67-7.2-1.22a5.2,5.2,0,0,1,6-.46c-1.67-2.14-2.75-4-5.75-4.35l3.41,1.91c-2.45,1.2-5.12-.79-6.26-2.89a5.11,5.11,0,0,1,5.24.65l.18-.09c-.91-1.8-.91-3.1-2.57-4.45-.3-.24-1.15-.88-1.54-.79l2.71,2.62c-2.82.37-4.53-2.09-5.1-4.54A5.6,5.6,0,0,1,27.94,47c-.65-1.51-.25-3.24-1-4.68a12.34,12.34,0,0,0-1.82-2c.18.45,2.11,2.71,1.91,3-2.51-.13-3.52-2.75-3.46-5a4.73,4.73,0,0,1,4,3.42c.27-2.19,2.14-3.26,4.16-3.51-.11,2.19-1.26,4.68-3.74,4.86l1.64-2.76c-2.76,2.08-1.84,4.22-1.17,7.06.06.28-.23.39.18.56a4.29,4.29,0,0,1,.66-3.46c.22-.3,2.26-2.16,2.52-1.68.49,2.42.06,5.16-2.52,6.08-.09-1.37.81-2.45,1.17-3.69-.64,1-1.76,2.53-1.64,3.78.23,2.39,3.89,7.34,5.75,8.93,7.2,6.17,22.11,6.14,29.32,0A21.05,21.05,0,0,0,70.68,45c.27-2.38-.14-3.31-2-4.81a16.84,16.84,0,0,1,1.91,2.94c-2.43-.12-3.65-2.66-3.83-4.86,2.08.26,3.93,1.38,4.25,3.6a4.56,4.56,0,0,1,3.84-3.55c.24,2.23-.9,4.88-3.42,5l1.92-3c-2.41,1.55-2.24,3.79-2.66,6.32a5.64,5.64,0,0,1,4.67-1.78c-.59,2.49-2.28,4.79-5.14,4.49L73,46.61c-2.67,1.09-3.16,3.13-4.2,5.52l.18.09C70.31,50.81,72.49,50.85,74.18,51.43Z"/><path class="cls-1" d="M57.3,69c-.09.31-2.72-.48-3-.61A4.85,4.85,0,0,1,51,63.77l3.79,2.76L51.27,63.3C54.86,63.27,57,65.51,57.3,69Z"/><path class="cls-1" d="M47.53,63.77c0,3.53-3.15,4.85-6.17,5.33a5.46,5.46,0,0,1,5.7-5.8l-3.32,3.14Z"/><path class="cls-1" d="M43,63.16c-1.2,3-4.35,4-7.39,3.37.6-1.92,2.25-3.89,4.35-4.16.29,0,2.59,0,2.57.33l-4,2.19Z"/><path class="cls-1" d="M40.8,61.15a7.7,7.7,0,0,1-1.69-4A7.17,7.17,0,0,0,40,60.92c-2.79-.69-3-4.48-1.73-6.59C40.58,55.78,42.26,58.48,40.8,61.15Z"/><path class="cls-1" d="M58.43,60.92a7.13,7.13,0,0,0,1-3.69c-.42,1.35-.69,2.93-1.78,3.92-1.38-2.72.32-5.26,2.53-6.82C61.6,56.32,61.21,60.33,58.43,60.92Z"/><path class="cls-1" d="M35.56,58.35c-.46.11-1-3.41-.61-3.79-.29-.12-.35.73-.37.94a11,11,0,0,0,.14,2.29c-2.33-1.38-1.5-4.72.09-6.36A5,5,0,0,1,35.56,58.35Z"/><path class="cls-1" d="M63.85,58l-.23-3.74a10,10,0,0,1-.52,4.07c-2.11-1.92-1.24-5,.52-6.87A4.46,4.46,0,0,1,63.85,58Z"/><path class="cls-1" d="M67.45,53.67a6.44,6.44,0,0,0-1.26-3.32,5.83,5.83,0,0,1,.61,4c-2.25-1.64-2.39-4.21-1.41-6.64C67.52,48.73,68.93,51.55,67.45,53.67Z"/><path class="cls-1" d="M31.73,54.33c-.6-1.31.18-2.72.51-4a6.46,6.46,0,0,0-1.17,3.23c-1.6-2,0-4.72,1.87-5.89A5.07,5.07,0,0,1,31.73,54.33Z"/><path class="cls-1" d="M69.69,48.44a7.87,7.87,0,0,0-1.63-3.14c.5,1.18,1.31,2.34,1.17,3.7a4.84,4.84,0,0,1-2.34-6.27C69.07,43.75,70.8,46,69.69,48.44Z"/><path class="cls-1" d="M27.61,39.74l-.14-1.64-.23,1.64A5.06,5.06,0,0,1,28.17,34,5.62,5.62,0,0,1,27.61,39.74Z"/><path class="cls-1" d="M71.1,39.83l-.24-2.48,0,2.11c-1.49-1.32-1.21-3.8-.66-5.52A4.93,4.93,0,0,1,71.1,39.83Z"/></g></svg>