<svg id="Camada_1" data-name="Camada 1" xmlns="http://www.w3.org/2000/svg" viewBox="0 0 98.59 86.99"><defs><style>.cls-1{fill:#fff;}</style></defs><title>Prancheta 31</title><g id="Objeto_generativo" data-name="Objeto generativo"><path class="cls-1" d="M26.68,60.89c2.14-.32,4.67.79,6.64,1.57,7.39,2.91,14.57,7.41,21.86,10.62.21.22-.61,3.68-.79,3.93s-.39.18-.66.18C45.87,74.27,31.91,73.78,25,69.58A4.71,4.71,0,0,1,26.68,60.89Z"/><path class="cls-1" d="M69.91,60.89c5.07-.59,8.54,5.18,4.35,8.33-1.54,1.16-12.81,4.6-14.62,4.47-.28,0-3-.82-3.38-1-1.87-.71-3.81-2.22-5.73-3,3.68-2,7.63-4.13,11.53-5.85C63.92,63.08,68.07,61.1,69.91,60.89Z"/><path class="cls-1" d="M58.44,64.39c.2,0,.41,0,.24.24L49.5,69.1l-9.24-4.53c3.6.19,7.2.49,10.81.42C53.34,65,56.4,64.33,58.44,64.39Z"/><path class="cls-1" d="M56.38,73.33c1.73.17,8.72,2.19,8.28,4.52s-7.87.5-9.36-.18Z"/><path class="cls-1" d="M38.39,74.29c.22,0,4,.74,4.23.85a6.65,6.65,0,0,1,.78,2.35c-.33.86-6.49,1.67-7.54,1.51C31.43,78.32,36.49,74.46,38.39,74.29Z"/><path class="cls-1" d="M44,75.5l3.68,1c-.46,0-3,.83-3.2.78S43.76,75.63,44,75.5Z"/><path class="cls-1" d="M81.5,58.71l-1.81,1c.1-.49-.54-2.7-1.21-2.42-.43.18.23,1.78.06,2.36-.3,1-2.4.63-1.93-1,.11-.4,2.13-1.12,1.27-1.51s-3.19,1.94-3.39,1.93c-.52,0-7.54-5.27-8.75-5.73-.74-4.21-1.23-8.52-2.17-12.68A27.43,27.43,0,0,0,62,35.22C60.52,32.64,52.94,32,52.58,30a3.56,3.56,0,0,1,.06-1.15c.21-.15,4.31.12,5,0C60.17,21.45,58.91,8,48.41,8.48c-9,.42-10.09,14.18-6.88,20.4,1.25.37,5.76-1,4.41,1.39S38,32.19,36.4,36c-2.14,4.87-2.18,12.18-3.63,17.39-1.15.51-8.11,5.73-8.63,5.73-.2,0-2.4-2.38-3.38-1.93-.79.36,1.08,1.08,1.27,1.51a1.12,1.12,0,0,1-1.27,1.51c-1.59-.35.44-3.19-.85-2.9a3,3,0,0,0-.84,2.42c-.54-.16-1.62-1.28-2-.91-1.32,1.3,2.05,3.18,3.08,3.32,1.64.23,7.22-1.94,9.05-2.66,2.47-1,7.23-2.47,8.27-4.89,1.16-2.67,1.35-6.34,2.36-9.11,1.84,3.83,2.08,8.8,1.51,13C41.2,59.46,40,62.76,40,63.24c0,.21,0,.29.18.42a94.65,94.65,0,0,0,18.36,0c.35-.14-.59-2.13-.67-2.47-1.19-5-1.39-11.22.91-15.88.8,2.63,1.11,5.68,2,8.27a13.16,13.16,0,0,0,.72,1.93c1.09,1.65,14.88,6.85,17,6.58C79.77,61.92,82.76,60.3,81.5,58.71ZM44.13,26.17C43,24.69,41.6,20.83,42.19,19c0-.11,1.54-1.31,1.81-1.69a11.52,11.52,0,0,0,1.27-2.84A16.07,16.07,0,0,0,56.44,19C57.74,26.19,49.58,33.1,44.13,26.17ZM44,32.45c1.38-.85,2.81-1.56,2.72-3.44a6.08,6.08,0,0,0,5.19,0c-.06,2.08,1.16,2.52,2.72,3.44C52.25,35.75,46.34,35.8,44,32.45Z"/></g></svg>