<svg id="Camada_1" data-name="Camada 1" xmlns="http://www.w3.org/2000/svg" viewBox="0 0 98.59 86.99"><defs><style>.cls-1{fill:#dadbdd;}.cls-2{fill:#fff;}.cls-3{fill:#757577;}.cls-4{fill:#404957;}.cls-5{fill:#005fad;}.cls-6{fill:none;stroke:#fff;stroke-miterlimit:10;}</style></defs><title>Prancheta 31</title><g id="Objeto_generativo" data-name="Objeto generativo"><path class="cls-1" d="M88.26,42.56c0,.13.11.41.26.44,2.39,5.43,5.09,10.52,6.75,16.28a1.78,1.78,0,0,0,.32,1.28c.12.51.23,1,.34,1.51-.2.08,0,.67.15.72s0,.05,0,.07a.57.57,0,0,0,.09.75c.26,1.77.69,6.58,0,8.14-.06.14-.63.82-.74,1.11,0-4.25.08-7-.86-11.28-2.3-10.46-6.61-19-11.7-28.08a17.78,17.78,0,0,1,2.3,3.31A54.48,54.48,0,0,1,88.26,42.56Z"/><path class="cls-1" d="M62.05,76.52c-.73,0-1.13-1.62-1.54-1.74-.1,0-.83.19-1,.11A21.55,21.55,0,0,1,58.3,73a102.65,102.65,0,0,1-9-23.63l2.94,8.79C54.68,64.77,58.48,70.56,62.05,76.52Z"/><path class="cls-2" d="M95.59,60.56a1.78,1.78,0,0,1-.32-1.28C95.39,59.7,95.48,60.13,95.59,60.56Z"/><path class="cls-2" d="M96.2,63.61a.57.57,0,0,1-.09-.75C96.16,63.11,96.16,63.37,96.2,63.61Z"/><path class="cls-2" d="M95.93,62.07c0,.24.11.48.15.72C95.92,62.74,95.73,62.15,95.93,62.07Z"/><path class="cls-1" d="M95.37,73.37c0-.15,0-.32.1-.51C95.47,73,95.6,73.28,95.37,73.37Z"/><path class="cls-2" d="M88.52,43c-.15,0-.21-.31-.26-.44C88.41,42.59,88.47,42.87,88.52,43Z"/><path class="cls-1" d="M82.4,32.7c-.06,0-.07,0-.1,0S82.37,32.65,82.4,32.7Z"/><path class="cls-1" d="M82.82,33.31c-.12,0-.11-.11-.15-.18S82.78,33.23,82.82,33.31Z"/><path class="cls-2" d="M60.08,27.52l2.45,5.65a4.08,4.08,0,0,0-1.94,3.89,75,75,0,0,0,4.33,9.81,4.17,4.17,0,0,0,3.91,1l2,4.21.19-.2L69.2,47.63A3.69,3.69,0,0,0,71,43.37a66.87,66.87,0,0,0-4-8.95A4.09,4.09,0,0,0,62.87,33l-2.43-5.59c7.48-3.11,14.81-2.77,20.47,3.46A69.83,69.83,0,0,1,88,43.43c3.62,7.87,8.71,22.32,7.09,30.93a.19.19,0,0,0,0,.1s0,0,0,.09a.39.39,0,0,0,0,.1.49.49,0,0,0,0,.16s0,0,0,.1-.09.36-.12.44-.11.4-.16.55c-.15.42-.34.92-.52,1.33-.09.18-.2.43-.3.6s-.15.29-.21.41c-.22.38-.74,1.2-1,1.54-.13.18-.41.55-.56.72s-.65.71-.86.92a.47.47,0,0,0-.1.13l-.34.3-.34.31-.41.33c-.14.09-.36.15-.41.34l-.07,0a2.07,2.07,0,0,0-.23.18c-.08,0-.27,0-.24.18l-.07,0c-.21.12-.49.16-.61.42l-.13.06c-.34.18-.76.25-1,.59-.09.05-.18.08-.27.12C85.8,85,84.59,85.51,83.39,86l-.33.14c-.37-.07-.67.16-1,.27l-.07,0c-.29-.1-.54.1-.79.19l-.07,0c-.17-.08-.36,0-.52.07l-.13.06c-.2-.13-.36,0-.52.07l-.53.07L79,87c-.3,0-.86,0-1.18,0s-.78,0-1.13-.06h-.16l-.58-.06-.26,0-.26,0-.25,0-.26,0-.26,0s0,0-.09,0l-.36-.09-.44-.12c-.2-.06-.46-.13-.64-.2l-.1,0-.09,0-.1,0-.09,0L72.55,86l-.19-.08-.1,0-.1,0-.5-.26-.41-.21-.1,0-.22-.14c-.07,0-.09,0-.09,0a.29.29,0,0,0-.13-.11c-.06,0-.09,0-.09,0s-.09,0-.1,0a.31.31,0,0,0-.12-.11s0-.08-.1,0,0-.06,0-.07-.09,0-.1,0,0-.08-.1,0,0-.06,0-.07-.1,0-.1,0a.28.28,0,0,0-.12-.1s0-.09-.1,0,0,0,0-.07-.09,0-.09,0,0-.09-.1,0,0,0,0-.07,0-.07-.09,0,0,0,0-.06,0-.08-.1,0c-6.75-4.87-13.64-18.51-16.73-26.21a63.6,63.6,0,0,1-4-13C47.9,36.65,52.8,30.73,60.08,27.52Z"/><path class="cls-3" d="M82.3,32.66c0,.05,0,.07.1,0a3.87,3.87,0,0,0,.27.43c0,.07,0,.22.15.18a1.63,1.63,0,0,0,.09.19c5.09,9,9.4,17.62,11.7,28.08.94,4.28.83,7,.86,11.28-.07.19,0,.36-.1.51-.09.33-.12.7-.18,1l-.07,0,0-.07C96.71,65.75,91.62,51.3,88,43.43A69.83,69.83,0,0,0,80.91,30.9,9.15,9.15,0,0,1,82.3,32.66Z"/><path class="cls-3" d="M69.27,84.06s0,.08.1,0,0,.05,0,.06,0,.08.09,0,0,0,0,.07.09,0,.1,0,0,.08.09,0,0,.06,0,.07.09,0,.1,0a.84.84,0,0,0,.12.1s0,.08.1,0,0,0,0,.07l0,.06-.06,0c-1.22-.89-2.12-1.63-3.27-2.61,0,0,0-.08-.09,0a1.39,1.39,0,0,1-.06-.13c-.07-.08-.09,0-.1,0s0-.15-.12-.1,0,0,0-.07,0-.15-.12-.11,0,0,0-.06-.14-.22-.25-.21l0-.07c0-.06,0-.14-.13-.1s0,0,0-.07-.12-.1-.13-.1,0-.22-.15-.17a4.62,4.62,0,0,0-.34-.41s0-.08-.09,0a14.08,14.08,0,0,0-1.28-1.5l0-.06a.84.84,0,0,1-.06-.14s0-.07-.1,0,0-.14-.08-.2,0-.15-.13-.11,0,0,0-.06,0-.15-.13-.11c-.15-.3-.42-.46-.48-.74a.06.06,0,0,0-.09,0c0-.06,0-.13-.09-.2s0-.07-.1,0,0-.14-.08-.2,0-.07-.1,0-.07-.18-.11-.27,0-.07-.1,0,0-.06-.06-.14c-3.57-6-7.37-11.75-9.79-18.39l-2.94-8.79a34.54,34.54,0,0,1-.77-4.49,63.6,63.6,0,0,0,4,13C55.63,65.55,62.52,79.19,69.27,84.06Z"/><path class="cls-1" d="M66.23,81.59c-.19,0-.19-.11-.25-.21C66.09,81.37,66.17,81.51,66.23,81.59Z"/><path class="cls-1" d="M65.8,81.14c-.11,0-.09-.07-.13-.1S65.7,81,65.8,81.14Z"/><path class="cls-1" d="M66,81.31c-.09,0-.09,0-.13-.1S65.92,81.25,66,81.31Z"/><path class="cls-1" d="M66.38,81.76c-.09,0-.09,0-.12-.11S66.35,81.7,66.38,81.76Z"/><path class="cls-1" d="M66.63,82c-.07,0-.09,0-.1,0S66.56,81.89,66.63,82Z"/><path class="cls-1" d="M66.78,82.14c-.06,0-.07,0-.09,0S66.76,82.12,66.78,82.14Z"/><path class="cls-1" d="M63.72,78.72s-.07,0-.1,0S63.69,78.68,63.72,78.72Z"/><path class="cls-1" d="M62.6,77.23c-.05,0-.07,0-.1,0S62.57,77.19,62.6,77.23Z"/><path class="cls-1" d="M66.53,81.93c-.07-.05,0,0-.12-.1C66.51,81.78,66.5,81.89,66.53,81.93Z"/><path class="cls-1" d="M62.21,76.69c-.07,0-.08,0-.1,0S62.18,76.64,62.21,76.69Z"/><path class="cls-1" d="M62.42,77c-.06,0-.07,0-.1,0S62.39,77,62.42,77Z"/><path class="cls-1" d="M62.78,77.47c-.05,0-.07,0-.09,0A.06.06,0,0,1,62.78,77.47Z"/><path class="cls-1" d="M63.39,78.32c-.1,0-.1,0-.13-.11S63.35,78.26,63.39,78.32Z"/><path class="cls-1" d="M63.54,78.49c-.09,0-.09,0-.13-.11S63.51,78.42,63.54,78.49Z"/><path class="cls-1" d="M63.81,78.92s0,0,0-.06Z"/><path class="cls-1" d="M65.18,80.46c-.05,0-.06,0-.09,0S65.16,80.43,65.18,80.46Z"/><path class="cls-1" d="M65.67,81l-.15-.17C65.64,80.82,65.62,81,65.67,81Z"/><path class="cls-4" d="M60.44,27.44,62.87,33l-.34.14-2.45-5.65A1.56,1.56,0,0,1,60.44,27.44Z"/><path class="cls-3" d="M71,43.37a66.31,66.31,0,0,0-4-8.95A4.07,4.07,0,0,0,62.87,33a1.92,1.92,0,0,0-.33.14,4.07,4.07,0,0,0-1.95,3.89,75,75,0,0,0,4.33,9.81,4.17,4.17,0,0,0,3.91,1l2,4.21.19-.2L69.2,47.63A3.69,3.69,0,0,0,71,43.37Zm-5.48,1.94a55.45,55.45,0,0,1-3.49-8,2.28,2.28,0,0,1,4.11-1.82l3.14,7.24,0,.08.32.76a1.55,1.55,0,0,1,0,.71A2.35,2.35,0,0,1,65.51,45.31Z"/><path class="cls-1" d="M70.77,43.78A63.1,63.1,0,0,0,67,35a3.42,3.42,0,0,0-4.72-1.32,3.67,3.67,0,0,0-1.47,3.45c.27,1.21,3.58,8.75,4.32,9.58C67.16,48.94,71.44,46.92,70.77,43.78Zm-1.14.46a2.35,2.35,0,0,1-4.12,1.07,55.45,55.45,0,0,1-3.49-8,2.28,2.28,0,0,1,4.11-1.82l3.14,7.24,0,.08.32.76A1.55,1.55,0,0,1,69.63,44.24Z"/><path class="cls-5" d="M69.63,43.53l-.32-.76A5.69,5.69,0,0,1,69.63,43.53Z"/><path class="cls-5" d="M69.63,43.53l-.32-.76A5.69,5.69,0,0,1,69.63,43.53Z"/></g><path class="cls-6" d="M60.64,27.79c6.68-2.09,9.5-11,6.49-17.34S56.86.66,49.86.51a16.24,16.24,0,0,0-6.8,1.12c-4.63,2-7.52,6.8-8.68,11.71s-.89,10-1,15.05c-.08,7.36-1,14.92-4.5,21.38-2.28,4.17-5.8,7.86-10.29,9.42s-10,.65-13.1-2.95C2.72,53,2.3,48.35,2,44.06"/></svg>