<svg id="Camada_1" data-name="Camada 1" xmlns="http://www.w3.org/2000/svg" viewBox="0 0 98.59 86.99"><defs><style>.cls-1{fill:#fff;}</style></defs><title>Prancheta 31</title><path class="cls-1" d="M59.9,24.2H38.14V16.49a2.44,2.44,0,0,0-3.86-2L7.72,33.38a1.92,1.92,0,0,0,0,3.13L34.28,55.39a2.44,2.44,0,0,0,3.86-2V45.65H49.29l.67-.24V42.08l-.67-.23H34.35v8.93L12.07,35,34.35,19.11V28H59.9a1.87,1.87,0,0,0,1.34-.56A1.9,1.9,0,0,0,59.9,24.2Z"/><path class="cls-1" d="M50,42.08v3.33l-.67.24H38.14V53.4a2.44,2.44,0,0,1-3.86,2L7.72,36.51A1.89,1.89,0,0,1,6.91,35h5.16L34.35,50.78V41.85H49.29Z"/><path class="cls-1" d="M90.87,51,64.31,32.11a2.44,2.44,0,0,0-3.86,2v7.76H49.29v3.8H64.23V36.71L86.52,52.55,64.23,68.39v-8.9H38.69a1.89,1.89,0,0,0-1.34.56,1.93,1.93,0,0,0-.56,1.35,1.9,1.9,0,0,0,1.9,1.9H60.45V71a2.44,2.44,0,0,0,3.86,2L90.87,54.12a1.93,1.93,0,0,0,0-3.14Z"/><path class="cls-1" d="M91.68,52.55a1.93,1.93,0,0,1-.81,1.57L64.31,73a2.44,2.44,0,0,1-3.86-2V63.3H38.69a1.9,1.9,0,0,1-1.9-1.9,1.93,1.93,0,0,1,.56-1.35,1.89,1.89,0,0,1,1.34-.56H64.23v8.9L86.52,52.55Z"/></svg>