<svg id="Camada_1" data-name="Camada 1" xmlns="http://www.w3.org/2000/svg" xmlns:xlink="http://www.w3.org/1999/xlink" viewBox="0 0 1359.78 765.85"><defs><style>.cls-1{fill:none;}.cls-2{clip-path:url(#clip-path);}.cls-3{fill:#f5ebe0;}</style><clipPath id="clip-path"><rect class="cls-1" width="1359.78" height="765.85"/></clipPath></defs><title>Prancheta 4</title><g class="cls-2"><path class="cls-3" d="M1605.51-104.94c-189,104.82-385.88,347.69-422.41,658.1,82.33-.86,162.6,8,234.75,26.46,178.62,45.81,301.26,147.75,355,295,.52,1.41,1,2.83,1.53,4.25a222.51,222.51,0,0,1,7.73,123.4,216.17,216.17,0,0,1-61.42,108.47c-30,28.83-66.47,48.87-108.45,59.58-36.62,9.34-76.61,11.36-118.87,6-74.38-9.42-150.89-41.15-209.91-87.06-59.26-46.1-108.89-107.83-143.53-178.51a548.44,548.44,0,0,1-55.47-220.11q-.68-19-.63-38A967.4,967.4,0,0,0,975,671.3C580.56,762.8,226,1027.09,49.73,1361l-82.48-43.55c48.33-91.54,109.1-179,180.65-259.81C217,979.59,296,907.71,382.74,844,553.54,718.65,751,627.5,953.89,580.44a1060,1060,0,0,1,134.64-22.1,970.17,970.17,0,0,1,32.12-169.92A991.61,991.61,0,0,1,1232,136.67,1002.4,1002.4,0,0,1,1388.06-57.06c54.19-52.25,113.74-97,172.21-129.44ZM1204.76,826c27.45,75.2,74.42,141.74,136,189.61,45.51,35.4,107,60.87,164.35,68.14,44,5.56,105.83,3.09,151-40.3,35.74-34.35,47.39-85.51,30.4-133.52-42.68-120.5-140.81-201.25-291.75-240-66.55-17.07-141-24.91-217.54-23.54q-.21,20.25.51,40.86A452.59,452.59,0,0,0,1204.76,826Z"/><path class="cls-3" d="M1042.77-204.71A597,597,0,0,1,838-134.55a597.08,597.08,0,0,1-216.36-6.39,643.34,643.34,0,0,1-168.9-62.3,605,605,0,0,1-87.23-56.91c-8.13,28.26-17.91,58-29.45,89.63A999.45,999.45,0,0,1,124,171.89C43.15,257.1-52.81,328.47-161.23,384A1129.62,1129.62,0,0,1-498.85,494.27l-16-100C-295.76,359.24-95,255.52,50.49,102.16A897.26,897.26,0,0,0,240.91-205.26q27.27-74.7,40.86-137a409.31,409.31,0,0,1-42.16-64.21C220.35-443,207.84-480.9,202.43-519.19c-7.84-55.45,12.75-99.89,53.72-116,30.35-11.91,66.43-4.16,91.93,19.75,20.16,18.9,29.05,42.42,34,58.46,15.83,51.45,18.64,113.3,8.4,184.06C455.69-308.89,547-260.73,643.05-240c117.6,25.42,245.16,6.11,350-53Z"/><circle class="cls-3" cx="804.64" cy="315.29" r="196.81" transform="translate(12.73 661.31) rotate(-45)"/></g></svg>