<svg xmlns="http://www.w3.org/2000/svg" xmlns:xlink="http://www.w3.org/1999/xlink" viewBox="0 0 476.13 511.69"><defs><style>.cls-1{fill:none;}.cls-2{clip-path:url(#clip-path);}.cls-3{fill:#fff;}</style><clipPath id="clip-path" transform="translate(-1.71 -10.58)"><ellipse class="cls-1" cx="212.85" cy="202.88" rx="212.85" ry="202.88"/></clipPath></defs><title>bg-login-1</title><g id="Camada_2" data-name="Camada 2"><g id="Camada_1-2" data-name="Camada 1"><g class="cls-2"><path class="cls-3" d="M8,10.58a6.18,6.18,0,0,0-6.32,6,6.18,6.18,0,0,0,6.32,6,6.18,6.18,0,0,0,6.32-6A6.18,6.18,0,0,0,8,10.58Z" transform="translate(-1.71 -10.58)"/><ellipse class="cls-3" cx="56.89" cy="6.03" rx="6.32" ry="6.03"/><path class="cls-3" d="M109.17,10.58a6.18,6.18,0,0,0-6.32,6,6.33,6.33,0,0,0,12.64,0A6.18,6.18,0,0,0,109.17,10.58Z" transform="translate(-1.71 -10.58)"/><path class="cls-3" d="M159.74,10.58a6.18,6.18,0,0,0-6.32,6,6.33,6.33,0,0,0,12.65,0A6.18,6.18,0,0,0,159.74,10.58Z" transform="translate(-1.71 -10.58)"/><path class="cls-3" d="M210.32,10.58a6.18,6.18,0,0,0-6.33,6,6.33,6.33,0,0,0,12.65,0A6.18,6.18,0,0,0,210.32,10.58Z" transform="translate(-1.71 -10.58)"/><path class="cls-3" d="M260.89,10.58a6.18,6.18,0,0,0-6.32,6,6.33,6.33,0,0,0,12.64,0A6.18,6.18,0,0,0,260.89,10.58Z" transform="translate(-1.71 -10.58)"/><path class="cls-3" d="M311.46,10.58a6.18,6.18,0,0,0-6.32,6,6.33,6.33,0,0,0,12.64,0A6.18,6.18,0,0,0,311.46,10.58Z" transform="translate(-1.71 -10.58)"/><ellipse class="cls-3" cx="360.33" cy="6.03" rx="6.32" ry="6.03"/><path class="cls-3" d="M412.6,10.58a6.18,6.18,0,0,0-6.32,6,6.33,6.33,0,0,0,12.65,0A6.19,6.19,0,0,0,412.6,10.58Z" transform="translate(-1.71 -10.58)"/><path class="cls-3" d="M34,46.09a6,6,0,1,0,6.32,6A6.18,6.18,0,0,0,34,46.09Z" transform="translate(-1.71 -10.58)"/><path class="cls-3" d="M84.61,46.09a6,6,0,1,0,6.32,6A6.18,6.18,0,0,0,84.61,46.09Z" transform="translate(-1.71 -10.58)"/><path class="cls-3" d="M135.18,46.09a6,6,0,1,0,6.32,6A6.18,6.18,0,0,0,135.18,46.09Z" transform="translate(-1.71 -10.58)"/><path class="cls-3" d="M185.75,46.09a6,6,0,1,0,6.33,6A6.18,6.18,0,0,0,185.75,46.09Z" transform="translate(-1.71 -10.58)"/><path class="cls-3" d="M236.33,46.09a6,6,0,1,0,6.32,6A6.18,6.18,0,0,0,236.33,46.09Z" transform="translate(-1.71 -10.58)"/><path class="cls-3" d="M286.9,46.09a6,6,0,1,0,6.32,6A6.18,6.18,0,0,0,286.9,46.09Z" transform="translate(-1.71 -10.58)"/><path class="cls-3" d="M337.47,46.09a6,6,0,1,0,6.32,6A6.18,6.18,0,0,0,337.47,46.09Z" transform="translate(-1.71 -10.58)"/><path class="cls-3" d="M388,46.09a6,6,0,1,0,6.32,6A6.18,6.18,0,0,0,388,46.09Z" transform="translate(-1.71 -10.58)"/><path class="cls-3" d="M438.61,46.09a6,6,0,1,0,6.32,6A6.18,6.18,0,0,0,438.61,46.09Z" transform="translate(-1.71 -10.58)"/><path class="cls-3" d="M8,79.54a6,6,0,1,0,0,12,6,6,0,1,0,0-12Z" transform="translate(-1.71 -10.58)"/><path class="cls-3" d="M58.6,79.54a6,6,0,1,0,6.32,6A6.18,6.18,0,0,0,58.6,79.54Z" transform="translate(-1.71 -10.58)"/><path class="cls-3" d="M109.17,79.54a6,6,0,1,0,6.32,6A6.18,6.18,0,0,0,109.17,79.54Z" transform="translate(-1.71 -10.58)"/><path class="cls-3" d="M159.74,79.54a6,6,0,1,0,6.33,6A6.18,6.18,0,0,0,159.74,79.54Z" transform="translate(-1.71 -10.58)"/><path class="cls-3" d="M210.32,79.54a6,6,0,1,0,6.32,6A6.18,6.18,0,0,0,210.32,79.54Z" transform="translate(-1.71 -10.58)"/><path class="cls-3" d="M260.89,79.54a6,6,0,1,0,6.32,6A6.18,6.18,0,0,0,260.89,79.54Z" transform="translate(-1.71 -10.58)"/><path class="cls-3" d="M311.46,79.54a6,6,0,1,0,6.32,6A6.18,6.18,0,0,0,311.46,79.54Z" transform="translate(-1.71 -10.58)"/><path class="cls-3" d="M362,79.54a6,6,0,1,0,6.32,6A6.18,6.18,0,0,0,362,79.54Z" transform="translate(-1.71 -10.58)"/><path class="cls-3" d="M412.6,79.54a6,6,0,1,0,6.33,6A6.18,6.18,0,0,0,412.6,79.54Z" transform="translate(-1.71 -10.58)"/><path class="cls-3" d="M34,115.05a6,6,0,1,0,6.32,6A6.17,6.17,0,0,0,34,115.05Z" transform="translate(-1.71 -10.58)"/><path class="cls-3" d="M84.61,115.05a6,6,0,1,0,6.32,6A6.17,6.17,0,0,0,84.61,115.05Z" transform="translate(-1.71 -10.58)"/><path class="cls-3" d="M135.18,115.05a6,6,0,1,0,6.32,6A6.17,6.17,0,0,0,135.18,115.05Z" transform="translate(-1.71 -10.58)"/><path class="cls-3" d="M185.75,115.05a6,6,0,1,0,6.33,6A6.17,6.17,0,0,0,185.75,115.05Z" transform="translate(-1.71 -10.58)"/><path class="cls-3" d="M236.33,115.05a6,6,0,1,0,6.32,6A6.17,6.17,0,0,0,236.33,115.05Z" transform="translate(-1.71 -10.58)"/><path class="cls-3" d="M286.92,106.17a6,6,0,1,0,6.32,6A6.18,6.18,0,0,0,286.92,106.17Z" transform="translate(-1.71 -10.58)"/><path class="cls-3" d="M337.47,115.05a6,6,0,1,0,6.32,6A6.17,6.17,0,0,0,337.47,115.05Z" transform="translate(-1.71 -10.58)"/><path class="cls-3" d="M388,115.05a6,6,0,1,0,6.32,6A6.17,6.17,0,0,0,388,115.05Z" transform="translate(-1.71 -10.58)"/><path class="cls-3" d="M438.61,115.05a6,6,0,1,0,6.32,6A6.17,6.17,0,0,0,438.61,115.05Z" transform="translate(-1.71 -10.58)"/><path class="cls-3" d="M8,152.52a6,6,0,1,0,0,12,6,6,0,1,0,0-12Z" transform="translate(-1.71 -10.58)"/><path class="cls-3" d="M58.6,152.52a6,6,0,1,0,6.32,6A6.17,6.17,0,0,0,58.6,152.52Z" transform="translate(-1.71 -10.58)"/><path class="cls-3" d="M109.17,152.52a6,6,0,1,0,6.32,6A6.17,6.17,0,0,0,109.17,152.52Z" transform="translate(-1.71 -10.58)"/><path class="cls-3" d="M159.74,152.52a6,6,0,1,0,6.33,6A6.17,6.17,0,0,0,159.74,152.52Z" transform="translate(-1.71 -10.58)"/><path class="cls-3" d="M210.32,152.52a6,6,0,1,0,6.32,6A6.17,6.17,0,0,0,210.32,152.52Z" transform="translate(-1.71 -10.58)"/><path class="cls-3" d="M260.89,152.52a6,6,0,1,0,6.32,6A6.17,6.17,0,0,0,260.89,152.52Z" transform="translate(-1.71 -10.58)"/><path class="cls-3" d="M311.46,152.52a6,6,0,1,0,6.32,6A6.17,6.17,0,0,0,311.46,152.52Z" transform="translate(-1.71 -10.58)"/><path class="cls-3" d="M362,152.52a6,6,0,1,0,6.32,6A6.17,6.17,0,0,0,362,152.52Z" transform="translate(-1.71 -10.58)"/><path class="cls-3" d="M412.6,152.52a6,6,0,1,0,6.33,6A6.17,6.17,0,0,0,412.6,152.52Z" transform="translate(-1.71 -10.58)"/><path class="cls-3" d="M34,188a6,6,0,1,0,6.32,6A6.18,6.18,0,0,0,34,188Z" transform="translate(-1.71 -10.58)"/><path class="cls-3" d="M84.61,188a6,6,0,1,0,6.32,6A6.18,6.18,0,0,0,84.61,188Z" transform="translate(-1.71 -10.58)"/><path class="cls-3" d="M135.18,188a6,6,0,1,0,6.32,6A6.18,6.18,0,0,0,135.18,188Z" transform="translate(-1.71 -10.58)"/><path class="cls-3" d="M185.75,188a6,6,0,1,0,6.33,6A6.18,6.18,0,0,0,185.75,188Z" transform="translate(-1.71 -10.58)"/><path class="cls-3" d="M236.33,188a6,6,0,1,0,6.32,6A6.18,6.18,0,0,0,236.33,188Z" transform="translate(-1.71 -10.58)"/><path class="cls-3" d="M286.9,188a6,6,0,1,0,6.32,6A6.18,6.18,0,0,0,286.9,188Z" transform="translate(-1.71 -10.58)"/><path class="cls-3" d="M337.47,188a6,6,0,1,0,6.32,6A6.18,6.18,0,0,0,337.47,188Z" transform="translate(-1.71 -10.58)"/><path class="cls-3" d="M388,188a6,6,0,1,0,6.32,6A6.18,6.18,0,0,0,388,188Z" transform="translate(-1.71 -10.58)"/><path class="cls-3" d="M438.61,188a6,6,0,1,0,6.32,6A6.18,6.18,0,0,0,438.61,188Z" transform="translate(-1.71 -10.58)"/><path class="cls-3" d="M8,221.47a6,6,0,1,0,0,12.05,6,6,0,1,0,0-12.05Z" transform="translate(-1.71 -10.58)"/><path class="cls-3" d="M58.6,221.47a6,6,0,1,0,6.32,6A6.18,6.18,0,0,0,58.6,221.47Z" transform="translate(-1.71 -10.58)"/><path class="cls-3" d="M109.17,221.47a6,6,0,1,0,6.32,6A6.18,6.18,0,0,0,109.17,221.47Z" transform="translate(-1.71 -10.58)"/><path class="cls-3" d="M159.74,221.47a6,6,0,1,0,6.33,6A6.18,6.18,0,0,0,159.74,221.47Z" transform="translate(-1.71 -10.58)"/><path class="cls-3" d="M210.32,221.47a6,6,0,1,0,6.32,6A6.18,6.18,0,0,0,210.32,221.47Z" transform="translate(-1.71 -10.58)"/><path class="cls-3" d="M260.89,221.47a6,6,0,1,0,6.32,6A6.18,6.18,0,0,0,260.89,221.47Z" transform="translate(-1.71 -10.58)"/><path class="cls-3" d="M311.46,221.47a6,6,0,1,0,6.32,6A6.18,6.18,0,0,0,311.46,221.47Z" transform="translate(-1.71 -10.58)"/><path class="cls-3" d="M362,221.47a6,6,0,1,0,6.32,6A6.18,6.18,0,0,0,362,221.47Z" transform="translate(-1.71 -10.58)"/><path class="cls-3" d="M412.6,221.47a6,6,0,1,0,6.33,6A6.18,6.18,0,0,0,412.6,221.47Z" transform="translate(-1.71 -10.58)"/><path class="cls-3" d="M34,257a6,6,0,1,0,6.32,6A6.17,6.17,0,0,0,34,257Z" transform="translate(-1.71 -10.58)"/><path class="cls-3" d="M84.61,257a6,6,0,1,0,6.32,6A6.17,6.17,0,0,0,84.61,257Z" transform="translate(-1.71 -10.58)"/><path class="cls-3" d="M135.18,257a6,6,0,1,0,6.32,6A6.17,6.17,0,0,0,135.18,257Z" transform="translate(-1.71 -10.58)"/><ellipse class="cls-3" cx="184.05" cy="252.42" rx="6.32" ry="6.03"/><path class="cls-3" d="M236.33,257a6,6,0,1,0,6.32,6A6.17,6.17,0,0,0,236.33,257Z" transform="translate(-1.71 -10.58)"/><path class="cls-3" d="M286.9,257a6,6,0,1,0,6.32,6A6.17,6.17,0,0,0,286.9,257Z" transform="translate(-1.71 -10.58)"/><path class="cls-3" d="M337.47,257a6,6,0,1,0,6.32,6A6.17,6.17,0,0,0,337.47,257Z" transform="translate(-1.71 -10.58)"/><path class="cls-3" d="M388,257a6,6,0,1,0,6.32,6A6.17,6.17,0,0,0,388,257Z" transform="translate(-1.71 -10.58)"/><path class="cls-3" d="M438.61,257a6,6,0,1,0,6.32,6A6.17,6.17,0,0,0,438.61,257Z" transform="translate(-1.71 -10.58)"/><path class="cls-3" d="M8,297.57a6,6,0,1,0,0,12.06,6,6,0,1,0,0-12.06Z" transform="translate(-1.71 -10.58)"/><path class="cls-3" d="M58.6,297.57a6,6,0,1,0,6.32,6A6.18,6.18,0,0,0,58.6,297.57Z" transform="translate(-1.71 -10.58)"/><path class="cls-3" d="M109.17,297.57a6,6,0,1,0,6.32,6A6.18,6.18,0,0,0,109.17,297.57Z" transform="translate(-1.71 -10.58)"/><path class="cls-3" d="M159.74,297.57a6,6,0,1,0,6.33,6A6.18,6.18,0,0,0,159.74,297.57Z" transform="translate(-1.71 -10.58)"/><path class="cls-3" d="M210.32,297.57a6,6,0,1,0,6.32,6A6.18,6.18,0,0,0,210.32,297.57Z" transform="translate(-1.71 -10.58)"/><path class="cls-3" d="M260.89,297.57a6,6,0,1,0,6.32,6A6.18,6.18,0,0,0,260.89,297.57Z" transform="translate(-1.71 -10.58)"/><path class="cls-3" d="M311.46,297.57a6,6,0,1,0,6.32,6A6.18,6.18,0,0,0,311.46,297.57Z" transform="translate(-1.71 -10.58)"/><path class="cls-3" d="M362,297.57a6,6,0,1,0,6.32,6A6.18,6.18,0,0,0,362,297.57Z" transform="translate(-1.71 -10.58)"/><path class="cls-3" d="M412.6,297.57a6,6,0,1,0,6.33,6A6.18,6.18,0,0,0,412.6,297.57Z" transform="translate(-1.71 -10.58)"/><path class="cls-3" d="M34,333.08a6,6,0,1,0,6.32,6A6.18,6.18,0,0,0,34,333.08Z" transform="translate(-1.71 -10.58)"/><path class="cls-3" d="M84.61,333.08a6,6,0,1,0,6.32,6A6.18,6.18,0,0,0,84.61,333.08Z" transform="translate(-1.71 -10.58)"/><path class="cls-3" d="M135.18,333.08a6,6,0,1,0,6.32,6A6.18,6.18,0,0,0,135.18,333.08Z" transform="translate(-1.71 -10.58)"/><path class="cls-3" d="M185.75,333.08a6,6,0,1,0,6.33,6A6.18,6.18,0,0,0,185.75,333.08Z" transform="translate(-1.71 -10.58)"/><path class="cls-3" d="M236.33,333.08a6,6,0,1,0,6.32,6A6.18,6.18,0,0,0,236.33,333.08Z" transform="translate(-1.71 -10.58)"/><path class="cls-3" d="M286.9,333.08a6,6,0,1,0,6.32,6A6.18,6.18,0,0,0,286.9,333.08Z" transform="translate(-1.71 -10.58)"/><path class="cls-3" d="M337.47,333.08a6,6,0,1,0,6.32,6A6.18,6.18,0,0,0,337.47,333.08Z" transform="translate(-1.71 -10.58)"/><path class="cls-3" d="M388,333.08a6,6,0,1,0,6.32,6A6.18,6.18,0,0,0,388,333.08Z" transform="translate(-1.71 -10.58)"/><path class="cls-3" d="M438.61,333.08a6,6,0,1,0,6.32,6A6.18,6.18,0,0,0,438.61,333.08Z" transform="translate(-1.71 -10.58)"/><path class="cls-3" d="M8,366.53a6,6,0,1,0,0,12.05,6,6,0,1,0,0-12.05Z" transform="translate(-1.71 -10.58)"/><ellipse class="cls-3" cx="56.89" cy="361.97" rx="6.32" ry="6.03"/><path class="cls-3" d="M109.17,366.53a6,6,0,1,0,6.32,6A6.18,6.18,0,0,0,109.17,366.53Z" transform="translate(-1.71 -10.58)"/><path class="cls-3" d="M159.74,366.53a6,6,0,1,0,6.33,6A6.18,6.18,0,0,0,159.74,366.53Z" transform="translate(-1.71 -10.58)"/><path class="cls-3" d="M210.32,366.53a6,6,0,1,0,6.32,6A6.18,6.18,0,0,0,210.32,366.53Z" transform="translate(-1.71 -10.58)"/><path class="cls-3" d="M260.89,366.53a6,6,0,1,0,6.32,6A6.18,6.18,0,0,0,260.89,366.53Z" transform="translate(-1.71 -10.58)"/><path class="cls-3" d="M311.46,366.53a6,6,0,1,0,6.32,6A6.18,6.18,0,0,0,311.46,366.53Z" transform="translate(-1.71 -10.58)"/><ellipse class="cls-3" cx="360.33" cy="361.97" rx="6.32" ry="6.03"/><path class="cls-3" d="M412.6,366.53a6,6,0,1,0,6.33,6A6.18,6.18,0,0,0,412.6,366.53Z" transform="translate(-1.71 -10.58)"/><path class="cls-3" d="M34,402a6,6,0,1,0,6.32,6A6.17,6.17,0,0,0,34,402Z" transform="translate(-1.71 -10.58)"/><path class="cls-3" d="M84.61,402a6,6,0,1,0,6.32,6A6.17,6.17,0,0,0,84.61,402Z" transform="translate(-1.71 -10.58)"/><path class="cls-3" d="M135.18,402a6,6,0,1,0,6.32,6A6.17,6.17,0,0,0,135.18,402Z" transform="translate(-1.71 -10.58)"/><path class="cls-3" d="M185.75,402a6,6,0,1,0,6.33,6A6.17,6.17,0,0,0,185.75,402Z" transform="translate(-1.71 -10.58)"/><path class="cls-3" d="M236.33,402a6,6,0,1,0,6.32,6A6.17,6.17,0,0,0,236.33,402Z" transform="translate(-1.71 -10.58)"/><path class="cls-3" d="M286.9,402a6,6,0,1,0,6.32,6A6.17,6.17,0,0,0,286.9,402Z" transform="translate(-1.71 -10.58)"/><path class="cls-3" d="M337.47,402a6,6,0,1,0,6.32,6A6.17,6.17,0,0,0,337.47,402Z" transform="translate(-1.71 -10.58)"/><path class="cls-3" d="M388,402a6,6,0,1,0,6.32,6A6.17,6.17,0,0,0,388,402Z" transform="translate(-1.71 -10.58)"/><path class="cls-3" d="M438.61,402a6,6,0,1,0,6.32,6A6.17,6.17,0,0,0,438.61,402Z" transform="translate(-1.71 -10.58)"/></g><path class="cls-3" d="M332.32,522.28c-80.23,0-145.51-65.28-145.51-145.52s65.28-145.51,145.51-145.51,145.52,65.27,145.52,145.51S412.56,522.28,332.32,522.28Zm0-259A113.53,113.53,0,1,0,445.85,376.76,113.65,113.65,0,0,0,332.32,263.24Z" transform="translate(-1.71 -10.58)"/></g></g></svg>