<svg xmlns="http://www.w3.org/2000/svg" viewBox="0 0 415.33 207.66"><defs><style>.cls-1{fill:#fff;}</style></defs><title>bg-login-2</title><g id="Camada_2" data-name="Camada 2"><g id="Camada_1-2" data-name="Camada 1"><path class="cls-1" d="M0,207.66C0,93.16,93.16,0,207.66,0S415.33,93.16,415.33,207.66h-12C403.3,99.79,315.54,12,207.66,12S12,99.79,12,207.66Z"/><path class="cls-1" d="M46.82,207.66C46.82,119,119,46.83,207.66,46.83S368.5,119,368.5,207.66h-12c0-82.06-66.76-148.81-148.82-148.81S58.84,125.6,58.84,207.66Z"/><path class="cls-1" d="M100.15,207.66a107.52,107.52,0,0,1,215,0h-12a95.49,95.49,0,1,0-191,0Z"/><path class="cls-1" d="M154.23,207.66a53.44,53.44,0,0,1,106.87,0h-12a41.42,41.42,0,0,0-82.83,0Z"/></g></g></svg>