<svg xmlns="http://www.w3.org/2000/svg" xmlns:xlink="http://www.w3.org/1999/xlink" viewBox="0 0 2413.81 302.26"><defs><style>.cls-1{fill:none;}.cls-2{clip-path:url(#clip-path);}.cls-3{fill:#fff;}</style><clipPath id="clip-path" transform="translate(208.85 -14.27)"><rect class="cls-1" width="1932.63" height="350.15"/></clipPath></defs><title>bg-login</title><g id="Camada_2" data-name="Camada 2"><g id="Camada_1-2" data-name="Camada 1"><g class="cls-2"><polygon class="cls-3" points="851.75 24.82 832.27 0 812.78 24.82 851.75 24.82"/><polygon class="cls-3" points="925.2 24.82 905.71 0 886.23 24.82 925.2 24.82"/><polygon class="cls-3" points="998.64 24.82 979.15 0 959.67 24.82 998.64 24.82"/><polygon class="cls-3" points="1072.08 24.82 1052.6 0 1033.12 24.82 1072.08 24.82"/><polygon class="cls-3" points="1145.53 24.82 1126.04 0 1106.56 24.82 1145.53 24.82"/><polygon class="cls-3" points="1218.97 24.82 1199.49 0 1180 24.82 1218.97 24.82"/><polygon class="cls-3" points="1292.41 24.82 1272.93 0 1253.45 24.82 1292.41 24.82"/><polygon class="cls-3" points="1365.86 24.82 1346.38 0 1326.89 24.82 1365.86 24.82"/><polygon class="cls-3" points="1439.3 24.82 1419.82 0 1400.34 24.82 1439.3 24.82"/><polygon class="cls-3" points="1512.75 24.82 1493.26 0 1473.78 24.82 1512.75 24.82"/><polygon class="cls-3" points="1586.19 24.82 1566.71 0 1547.22 24.82 1586.19 24.82"/><polygon class="cls-3" points="851.75 80.31 832.27 55.49 812.78 80.31 851.75 80.31"/><polygon class="cls-3" points="925.2 80.31 905.71 55.49 886.23 80.31 925.2 80.31"/><polygon class="cls-3" points="998.64 80.31 979.15 55.49 959.67 80.31 998.64 80.31"/><polygon class="cls-3" points="1072.08 80.31 1052.6 55.49 1033.12 80.31 1072.08 80.31"/><polygon class="cls-3" points="1145.53 80.31 1126.04 55.49 1106.56 80.31 1145.53 80.31"/><polygon class="cls-3" points="1218.97 80.31 1199.49 55.49 1180 80.31 1218.97 80.31"/><polygon class="cls-3" points="1292.41 80.31 1272.93 55.49 1253.45 80.31 1292.41 80.31"/><polygon class="cls-3" points="1365.86 80.31 1346.38 55.49 1326.89 80.31 1365.86 80.31"/><polygon class="cls-3" points="1439.3 80.31 1419.82 55.49 1400.34 80.31 1439.3 80.31"/><polygon class="cls-3" points="1512.75 80.31 1493.26 55.49 1473.78 80.31 1512.75 80.31"/><polygon class="cls-3" points="1586.19 80.31 1566.71 55.49 1547.22 80.31 1586.19 80.31"/><polygon class="cls-3" points="851.75 135.8 832.27 110.97 812.78 135.8 851.75 135.8"/><polygon class="cls-3" points="925.2 135.8 905.71 110.97 886.23 135.8 925.2 135.8"/><polygon class="cls-3" points="998.64 135.8 979.15 110.97 959.67 135.8 998.64 135.8"/><polygon class="cls-3" points="1072.08 135.8 1052.6 110.97 1033.12 135.8 1072.08 135.8"/><polygon class="cls-3" points="1145.53 135.8 1126.04 110.97 1106.56 135.8 1145.53 135.8"/><polygon class="cls-3" points="1218.97 135.8 1199.49 110.97 1180 135.8 1218.97 135.8"/><polygon class="cls-3" points="1292.41 135.8 1272.93 110.97 1253.45 135.8 1292.41 135.8"/><polygon class="cls-3" points="1365.86 135.8 1346.38 110.97 1326.89 135.8 1365.86 135.8"/><polygon class="cls-3" points="1439.3 135.8 1419.82 110.97 1400.34 135.8 1439.3 135.8"/><polygon class="cls-3" points="1512.75 135.8 1493.26 110.97 1473.78 135.8 1512.75 135.8"/><polygon class="cls-3" points="1586.19 135.8 1566.71 110.97 1547.22 135.8 1586.19 135.8"/><polygon class="cls-3" points="851.75 191.28 832.27 166.46 812.78 191.28 851.75 191.28"/><polygon class="cls-3" points="925.2 191.28 905.71 166.46 886.23 191.28 925.2 191.28"/><polygon class="cls-3" points="998.64 191.28 979.15 166.46 959.67 191.28 998.64 191.28"/><polygon class="cls-3" points="1072.08 191.28 1052.6 166.46 1033.12 191.28 1072.08 191.28"/><polygon class="cls-3" points="1145.53 191.28 1126.04 166.46 1106.56 191.28 1145.53 191.28"/><polygon class="cls-3" points="1218.97 191.28 1199.49 166.46 1180 191.28 1218.97 191.28"/><polygon class="cls-3" points="1292.41 191.28 1272.93 166.46 1253.45 191.28 1292.41 191.28"/><polygon class="cls-3" points="1365.86 191.28 1346.38 166.46 1326.89 191.28 1365.86 191.28"/><polygon class="cls-3" points="1439.3 191.28 1419.82 166.46 1400.34 191.28 1439.3 191.28"/><polygon class="cls-3" points="1512.75 191.28 1493.26 166.46 1473.78 191.28 1512.75 191.28"/><polygon class="cls-3" points="1586.19 191.28 1566.71 166.46 1547.22 191.28 1586.19 191.28"/><polygon class="cls-3" points="851.75 246.77 832.27 221.95 812.78 246.77 851.75 246.77"/><polygon class="cls-3" points="925.2 246.77 905.71 221.95 886.23 246.77 925.2 246.77"/><polygon class="cls-3" points="998.64 246.77 979.15 221.95 959.67 246.77 998.64 246.77"/><polygon class="cls-3" points="1072.08 246.77 1052.6 221.95 1033.12 246.77 1072.08 246.77"/><polygon class="cls-3" points="1145.53 246.77 1126.04 221.95 1106.56 246.77 1145.53 246.77"/><polygon class="cls-3" points="1218.97 246.77 1199.49 221.95 1180 246.77 1218.97 246.77"/><polygon class="cls-3" points="1292.41 246.77 1272.93 221.95 1253.45 246.77 1292.41 246.77"/><polygon class="cls-3" points="1365.86 246.77 1346.38 221.95 1326.89 246.77 1365.86 246.77"/><polygon class="cls-3" points="1439.3 246.77 1419.82 221.95 1400.34 246.77 1439.3 246.77"/><polygon class="cls-3" points="1512.75 246.77 1493.26 221.95 1473.78 246.77 1512.75 246.77"/><polygon class="cls-3" points="1586.19 246.77 1566.71 221.95 1547.22 246.77 1586.19 246.77"/><polygon class="cls-3" points="851.75 302.26 832.27 277.44 812.78 302.26 851.75 302.26"/><polygon class="cls-3" points="925.2 302.26 905.71 277.44 886.23 302.26 925.2 302.26"/><polygon class="cls-3" points="998.64 302.26 979.15 277.44 959.67 302.26 998.64 302.26"/><polygon class="cls-3" points="1072.08 302.26 1052.6 277.44 1033.12 302.26 1072.08 302.26"/><polygon class="cls-3" points="1145.53 302.26 1126.04 277.44 1106.56 302.26 1145.53 302.26"/><polygon class="cls-3" points="1218.97 302.26 1199.49 277.44 1180 302.26 1218.97 302.26"/><polygon class="cls-3" points="1292.41 302.26 1272.93 277.44 1253.45 302.26 1292.41 302.26"/><polygon class="cls-3" points="1365.86 302.26 1346.38 277.44 1326.89 302.26 1365.86 302.26"/><polygon class="cls-3" points="1439.3 302.26 1419.82 277.44 1400.34 302.26 1439.3 302.26"/><polygon class="cls-3" points="1512.75 302.26 1493.26 277.44 1473.78 302.26 1512.75 302.26"/><polygon class="cls-3" points="1586.19 302.26 1566.71 277.44 1547.22 302.26 1586.19 302.26"/><polygon class="cls-3" points="1679.37 24.82 1659.89 0 1640.4 24.82 1679.37 24.82"/><polygon class="cls-3" points="1752.82 24.82 1733.33 0 1713.85 24.82 1752.82 24.82"/><polygon class="cls-3" points="1826.26 24.82 1806.78 0 1787.29 24.82 1826.26 24.82"/><polygon class="cls-3" points="1899.7 24.82 1880.22 0 1860.74 24.82 1899.7 24.82"/><polygon class="cls-3" points="1973.15 24.82 1953.66 0 1934.18 24.82 1973.15 24.82"/><polygon class="cls-3" points="2046.59 24.82 2027.11 0 2007.63 24.82 2046.59 24.82"/><polygon class="cls-3" points="2120.04 24.82 2100.55 0 2081.07 24.82 2120.04 24.82"/><polygon class="cls-3" points="2193.48 24.82 2174 0 2154.51 24.82 2193.48 24.82"/><polygon class="cls-3" points="2266.93 24.82 2247.44 0 2227.96 24.82 2266.93 24.82"/><polygon class="cls-3" points="2340.37 24.82 2320.89 0 2301.4 24.82 2340.37 24.82"/><polygon class="cls-3" points="2413.81 24.82 2394.33 0 2374.85 24.82 2413.81 24.82"/><polygon class="cls-3" points="1679.37 80.31 1659.89 55.49 1640.4 80.31 1679.37 80.31"/><polygon class="cls-3" points="1752.82 80.31 1733.33 55.49 1713.85 80.31 1752.82 80.31"/><polygon class="cls-3" points="1826.26 80.31 1806.78 55.49 1787.29 80.31 1826.26 80.31"/><polygon class="cls-3" points="1899.7 80.31 1880.22 55.49 1860.74 80.31 1899.7 80.31"/><polygon class="cls-3" points="1973.15 80.31 1953.66 55.49 1934.18 80.31 1973.15 80.31"/><polygon class="cls-3" points="2046.59 80.31 2027.11 55.49 2007.63 80.31 2046.59 80.31"/><polygon class="cls-3" points="2120.04 80.31 2100.55 55.49 2081.07 80.31 2120.04 80.31"/><polygon class="cls-3" points="2193.48 80.31 2174 55.49 2154.51 80.31 2193.48 80.31"/><polygon class="cls-3" points="2266.93 80.31 2247.44 55.49 2227.96 80.31 2266.93 80.31"/><polygon class="cls-3" points="2340.37 80.31 2320.89 55.49 2301.4 80.31 2340.37 80.31"/><polygon class="cls-3" points="2413.81 80.31 2394.33 55.49 2374.85 80.31 2413.81 80.31"/><polygon class="cls-3" points="1679.37 135.8 1659.89 110.97 1640.4 135.8 1679.37 135.8"/><polygon class="cls-3" points="1752.82 135.8 1733.33 110.97 1713.85 135.8 1752.82 135.8"/><polygon class="cls-3" points="1826.26 135.8 1806.78 110.97 1787.29 135.8 1826.26 135.8"/><polygon class="cls-3" points="1899.7 135.8 1880.22 110.97 1860.74 135.8 1899.7 135.8"/><polygon class="cls-3" points="1973.15 135.8 1953.66 110.97 1934.18 135.8 1973.15 135.8"/><polygon class="cls-3" points="2046.59 135.8 2027.11 110.97 2007.63 135.8 2046.59 135.8"/><polygon class="cls-3" points="2120.04 135.8 2100.55 110.97 2081.07 135.8 2120.04 135.8"/><polygon class="cls-3" points="2193.48 135.8 2174 110.97 2154.51 135.8 2193.48 135.8"/><polygon class="cls-3" points="2266.93 135.8 2247.44 110.97 2227.96 135.8 2266.93 135.8"/><polygon class="cls-3" points="2340.37 135.8 2320.89 110.97 2301.4 135.8 2340.37 135.8"/><polygon class="cls-3" points="2413.81 135.8 2394.33 110.97 2374.85 135.8 2413.81 135.8"/><polygon class="cls-3" points="1679.37 191.28 1659.89 166.46 1640.4 191.28 1679.37 191.28"/><polygon class="cls-3" points="1752.82 191.28 1733.33 166.46 1713.85 191.28 1752.82 191.28"/><polygon class="cls-3" points="1826.26 191.28 1806.78 166.46 1787.29 191.28 1826.26 191.28"/><polygon class="cls-3" points="1899.7 191.28 1880.22 166.46 1860.74 191.28 1899.7 191.28"/><polygon class="cls-3" points="1973.15 191.28 1953.66 166.46 1934.18 191.28 1973.15 191.28"/><polygon class="cls-3" points="2046.59 191.28 2027.11 166.46 2007.63 191.28 2046.59 191.28"/><polygon class="cls-3" points="2120.04 191.28 2100.55 166.46 2081.07 191.28 2120.04 191.28"/><polygon class="cls-3" points="2193.48 191.28 2174 166.46 2154.51 191.28 2193.48 191.28"/><polygon class="cls-3" points="2266.93 191.28 2247.44 166.46 2227.96 191.28 2266.93 191.28"/><polygon class="cls-3" points="2340.37 191.28 2320.89 166.46 2301.4 191.28 2340.37 191.28"/><polygon class="cls-3" points="2413.81 191.28 2394.33 166.46 2374.85 191.28 2413.81 191.28"/><polygon class="cls-3" points="1679.37 246.77 1659.89 221.95 1640.4 246.77 1679.37 246.77"/><polygon class="cls-3" points="1752.82 246.77 1733.33 221.95 1713.85 246.77 1752.82 246.77"/><polygon class="cls-3" points="1826.26 246.77 1806.78 221.95 1787.29 246.77 1826.26 246.77"/><polygon class="cls-3" points="1899.7 246.77 1880.22 221.95 1860.74 246.77 1899.7 246.77"/><polygon class="cls-3" points="1973.15 246.77 1953.66 221.95 1934.18 246.77 1973.15 246.77"/><polygon class="cls-3" points="2046.59 246.77 2027.11 221.95 2007.63 246.77 2046.59 246.77"/><polygon class="cls-3" points="2120.04 246.77 2100.55 221.95 2081.07 246.77 2120.04 246.77"/><polygon class="cls-3" points="2193.48 246.77 2174 221.95 2154.51 246.77 2193.48 246.77"/><polygon class="cls-3" points="2266.93 246.77 2247.44 221.95 2227.96 246.77 2266.93 246.77"/><polygon class="cls-3" points="2340.37 246.77 2320.89 221.95 2301.4 246.77 2340.37 246.77"/><polygon class="cls-3" points="2413.81 246.77 2394.33 221.95 2374.85 246.77 2413.81 246.77"/><polygon class="cls-3" points="1679.37 302.26 1659.89 277.44 1640.4 302.26 1679.37 302.26"/><polygon class="cls-3" points="1752.82 302.26 1733.33 277.44 1713.85 302.26 1752.82 302.26"/><polygon class="cls-3" points="1826.26 302.26 1806.78 277.44 1787.29 302.26 1826.26 302.26"/><polygon class="cls-3" points="1899.7 302.26 1880.22 277.44 1860.74 302.26 1899.7 302.26"/><polygon class="cls-3" points="1973.15 302.26 1953.66 277.44 1934.18 302.26 1973.15 302.26"/><polygon class="cls-3" points="2046.59 302.26 2027.11 277.44 2007.63 302.26 2046.59 302.26"/><polygon class="cls-3" points="2120.04 302.26 2100.55 277.44 2081.07 302.26 2120.04 302.26"/><polygon class="cls-3" points="2193.48 302.26 2174 277.44 2154.51 302.26 2193.48 302.26"/><polygon class="cls-3" points="2266.93 302.26 2247.44 277.44 2227.96 302.26 2266.93 302.26"/><polygon class="cls-3" points="2340.37 302.26 2320.89 277.44 2301.4 302.26 2340.37 302.26"/><polygon class="cls-3" points="2413.81 302.26 2394.33 277.44 2374.85 302.26 2413.81 302.26"/><polygon class="cls-3" points="38.97 24.82 19.48 0 0 24.82 38.97 24.82"/><polygon class="cls-3" points="112.41 24.82 92.93 0 73.44 24.82 112.41 24.82"/><polygon class="cls-3" points="185.85 24.82 166.37 0 146.89 24.82 185.85 24.82"/><polygon class="cls-3" points="259.3 24.82 239.82 0 220.33 24.82 259.3 24.82"/><polygon class="cls-3" points="332.74 24.82 313.26 0 293.78 24.82 332.74 24.82"/><polygon class="cls-3" points="406.19 24.82 386.7 0 367.22 24.82 406.19 24.82"/><polygon class="cls-3" points="479.63 24.82 460.15 0 440.67 24.82 479.63 24.82"/><polygon class="cls-3" points="553.08 24.82 533.59 0 514.11 24.82 553.08 24.82"/><polygon class="cls-3" points="626.52 24.82 607.04 0 587.55 24.82 626.52 24.82"/><polygon class="cls-3" points="699.96 24.82 680.48 0 661 24.82 699.96 24.82"/><polygon class="cls-3" points="773.41 24.82 753.92 0 734.44 24.82 773.41 24.82"/><polygon class="cls-3" points="38.97 80.31 19.48 55.49 0 80.31 38.97 80.31"/><polygon class="cls-3" points="112.41 80.31 92.93 55.49 73.44 80.31 112.41 80.31"/><polygon class="cls-3" points="185.85 80.31 166.37 55.49 146.89 80.31 185.85 80.31"/><polygon class="cls-3" points="259.3 80.31 239.82 55.49 220.33 80.31 259.3 80.31"/><polygon class="cls-3" points="332.74 80.31 313.26 55.49 293.78 80.31 332.74 80.31"/><polygon class="cls-3" points="406.19 80.31 386.7 55.49 367.22 80.31 406.19 80.31"/><polygon class="cls-3" points="479.63 80.31 460.15 55.49 440.67 80.31 479.63 80.31"/><polygon class="cls-3" points="553.08 80.31 533.59 55.49 514.11 80.31 553.08 80.31"/><polygon class="cls-3" points="626.52 80.31 607.04 55.49 587.55 80.31 626.52 80.31"/><polygon class="cls-3" points="699.96 80.31 680.48 55.49 661 80.31 699.96 80.31"/><polygon class="cls-3" points="773.41 80.31 753.92 55.49 734.44 80.31 773.41 80.31"/><polygon class="cls-3" points="38.97 135.8 19.48 110.97 0 135.8 38.97 135.8"/><polygon class="cls-3" points="112.41 135.8 92.93 110.97 73.44 135.8 112.41 135.8"/><polygon class="cls-3" points="185.85 135.8 166.37 110.97 146.89 135.8 185.85 135.8"/><polygon class="cls-3" points="259.3 135.8 239.82 110.97 220.33 135.8 259.3 135.8"/><polygon class="cls-3" points="332.74 135.8 313.26 110.97 293.78 135.8 332.74 135.8"/><polygon class="cls-3" points="406.19 135.8 386.7 110.97 367.22 135.8 406.19 135.8"/><polygon class="cls-3" points="479.63 135.8 460.15 110.97 440.67 135.8 479.63 135.8"/><polygon class="cls-3" points="553.08 135.8 533.59 110.97 514.11 135.8 553.08 135.8"/><polygon class="cls-3" points="626.52 135.8 607.04 110.97 587.55 135.8 626.52 135.8"/><polygon class="cls-3" points="699.96 135.8 680.48 110.97 661 135.8 699.96 135.8"/><polygon class="cls-3" points="773.41 135.8 753.92 110.97 734.44 135.8 773.41 135.8"/><polygon class="cls-3" points="38.97 191.28 19.48 166.46 0 191.28 38.97 191.28"/><polygon class="cls-3" points="112.41 191.28 92.93 166.46 73.44 191.28 112.41 191.28"/><polygon class="cls-3" points="185.85 191.28 166.37 166.46 146.89 191.28 185.85 191.28"/><polygon class="cls-3" points="259.3 191.28 239.82 166.46 220.33 191.28 259.3 191.28"/><polygon class="cls-3" points="332.74 191.28 313.26 166.46 293.78 191.28 332.74 191.28"/><polygon class="cls-3" points="406.19 191.28 386.7 166.46 367.22 191.28 406.19 191.28"/><polygon class="cls-3" points="479.63 191.28 460.15 166.46 440.67 191.28 479.63 191.28"/><polygon class="cls-3" points="553.08 191.28 533.59 166.46 514.11 191.28 553.08 191.28"/><polygon class="cls-3" points="626.52 191.28 607.04 166.46 587.55 191.28 626.52 191.28"/><polygon class="cls-3" points="699.96 191.28 680.48 166.46 661 191.28 699.96 191.28"/><polygon class="cls-3" points="773.41 191.28 753.92 166.46 734.44 191.28 773.41 191.28"/><polygon class="cls-3" points="38.97 246.77 19.48 221.95 0 246.77 38.97 246.77"/><polygon class="cls-3" points="112.41 246.77 92.93 221.95 73.44 246.77 112.41 246.77"/><polygon class="cls-3" points="185.85 246.77 166.37 221.95 146.89 246.77 185.85 246.77"/><polygon class="cls-3" points="259.3 246.77 239.82 221.95 220.33 246.77 259.3 246.77"/><polygon class="cls-3" points="332.74 246.77 313.26 221.95 293.78 246.77 332.74 246.77"/><polygon class="cls-3" points="406.19 246.77 386.7 221.95 367.22 246.77 406.19 246.77"/><polygon class="cls-3" points="479.63 246.77 460.15 221.95 440.67 246.77 479.63 246.77"/><polygon class="cls-3" points="553.08 246.77 533.59 221.95 514.11 246.77 553.08 246.77"/><polygon class="cls-3" points="626.52 246.77 607.04 221.95 587.55 246.77 626.52 246.77"/><polygon class="cls-3" points="699.96 246.77 680.48 221.95 661 246.77 699.96 246.77"/><polygon class="cls-3" points="773.41 246.77 753.92 221.95 734.44 246.77 773.41 246.77"/><polygon class="cls-3" points="38.97 302.26 19.48 277.44 0 302.26 38.97 302.26"/><polygon class="cls-3" points="112.41 302.26 92.93 277.44 73.44 302.26 112.41 302.26"/><polygon class="cls-3" points="185.85 302.26 166.37 277.44 146.89 302.26 185.85 302.26"/><polygon class="cls-3" points="259.3 302.26 239.82 277.44 220.33 302.26 259.3 302.26"/><polygon class="cls-3" points="332.74 302.26 313.26 277.44 293.78 302.26 332.74 302.26"/><polygon class="cls-3" points="406.19 302.26 386.7 277.44 367.22 302.26 406.19 302.26"/><polygon class="cls-3" points="479.63 302.26 460.15 277.44 440.67 302.26 479.63 302.26"/><polygon class="cls-3" points="553.08 302.26 533.59 277.44 514.11 302.26 553.08 302.26"/><polygon class="cls-3" points="626.52 302.26 607.04 277.44 587.55 302.26 626.52 302.26"/><polygon class="cls-3" points="699.96 302.26 680.48 277.44 661 302.26 699.96 302.26"/><polygon class="cls-3" points="773.41 302.26 753.92 277.44 734.44 302.26 773.41 302.26"/></g></g></g></svg>