<svg xmlns="http://www.w3.org/2000/svg" viewBox="0 0 48.67 60.14"><defs><style>.cls-1{fill:#fff;}</style></defs><title>lock</title><g id="Camada_2" data-name="Camada 2"><g id="Camada_1-2" data-name="Camada 1"><path class="cls-1" d="M45.55,28.83c-1.76-.2-4.16,0-6,0-.07-.92-.09-1.85-.09-2.79,0-7.09,1.39-14.67-3.32-20.47C27.69-4.84,10.55.2,9.2,13.5c-.5,4.91.22,10.37-.08,15.33H9c-1.8,0-3.89-.16-5.62,0a3.83,3.83,0,0,0-2.19.82,3.36,3.36,0,0,0-1.15,2v25.6a3.48,3.48,0,0,0,2.85,2.86h43a3.48,3.48,0,0,0,2.86-2.86V31.68A3.45,3.45,0,0,0,45.55,28.83ZM26.86,45.11V52.9c-.05.34-.36.92-.71,1-.18.05-3.46.05-3.63,0a1.87,1.87,0,0,1-.49-.4c-.58-1.06.14-6.82-.14-8.39-4.49-2.23-3.32-9.26,1.67-9.83A5.26,5.26,0,0,1,26.86,45.11Zm9.49-16.28q-12-.06-24,0c.63-7.44-2.2-16.36,4.2-21.89C24.13.34,35.62,5.6,36.35,15.43,36.68,19.75,36.11,24.47,36.35,28.83Z"/></g></g></svg>