<svg xmlns="http://www.w3.org/2000/svg" xmlns:xlink="http://www.w3.org/1999/xlink" viewBox="0 0 307.86 99.92"><defs><style>.cls-1{fill:url(#Gradiente_sem_nome_10);}.cls-2{fill:url(#Gradiente_sem_nome_10-2);}.cls-3{fill:#5a6c7b;}.cls-4{fill:#f7a64d;}.cls-5{clip-path:url(#clip-path);}.cls-6{fill:url(#Gradiente_sem_nome_12);}.cls-7{clip-path:url(#clip-path-2);}.cls-8{fill:url(#Gradiente_sem_nome_12-2);}</style><linearGradient id="Gradiente_sem_nome_10" x1="23.13" y1="35.25" x2="33.64" y2="35.25" gradientUnits="userSpaceOnUse"><stop offset="0" stop-color="#f7a64d"/><stop offset="1" stop-color="#f7a64d"/></linearGradient><linearGradient id="Gradiente_sem_nome_10-2" x1="66.29" y1="78.39" x2="76.79" y2="78.39" xlink:href="#Gradiente_sem_nome_10"/><clipPath id="clip-path"><rect class="cls-1" x="23.13" y="33.64" width="10.5" height="3.22"/></clipPath><linearGradient id="Gradiente_sem_nome_12" x1="580.28" y1="971.79" x2="581.08" y2="971.79" gradientTransform="matrix(0, -4.05, -4.05, 0, 3962.49, 2386.02)" gradientUnits="userSpaceOnUse"><stop offset="0" stop-color="#f7a64d"/><stop offset="1" stop-color="#b57d3a"/></linearGradient><clipPath id="clip-path-2"><rect class="cls-2" x="66.29" y="76.78" width="10.5" height="3.22"/></clipPath><linearGradient id="Gradiente_sem_nome_12-2" x1="569.63" y1="961.13" x2="570.42" y2="961.13" xlink:href="#Gradiente_sem_nome_12"/></defs><title>logo</title><g id="Camada_2" data-name="Camada 2"><g id="Camada_1-2" data-name="Camada 1"><path class="cls-3" d="M136.18,63.06l-8.55-24.23a5.87,5.87,0,0,1-.37-1.87,3.42,3.42,0,0,1,3.56-3.38,3.73,3.73,0,0,1,3.56,2.9l6.14,19.29,6.21-19.29a3.87,3.87,0,0,1,3.74-2.9h.42a3.87,3.87,0,0,1,3.74,2.9l6.27,19.29,6.21-19.35a3.63,3.63,0,0,1,3.55-2.84A3.39,3.39,0,0,1,174.1,37a6,6,0,0,1-.3,1.62l-8.68,24.48c-.79,2.23-2.29,3.25-4,3.25h-.24a4,4,0,0,1-4-3.13l-6.21-18.93-6.27,18.93a4,4,0,0,1-3.92,3.13h-.24c-1.81,0-3.31-1-4-3.25"/><path class="cls-3" d="M183,21.83a3.45,3.45,0,0,0-3.64,3.56v.36a3.65,3.65,0,0,0,7.29,0v-.36A3.46,3.46,0,0,0,183,21.83"/><path class="cls-3" d="M183,33.58a3.6,3.6,0,0,0-3.61,3.68v25.2a3.65,3.65,0,0,0,7.29,0V37.26A3.66,3.66,0,0,0,183,33.58"/><path class="cls-4" d="M5.26,23.14h52.6a5.26,5.26,0,0,1,0,10.52H10.52V89.4H66.28V42.07a5.26,5.26,0,1,1,10.51,0V94.66a5.26,5.26,0,0,1-5.26,5.26H5.26A5.26,5.26,0,0,1,0,94.66V28.4a5.25,5.25,0,0,1,5.26-5.26"/><path class="cls-4" d="M94.66,76.78H42.06a5.26,5.26,0,1,1,0-10.52H89.4V10.52H33.64V57.85a5.26,5.26,0,0,1-10.51,0V5.26A5.26,5.26,0,0,1,28.38,0H94.66a5.27,5.27,0,0,1,5.26,5.26V71.52a5.27,5.27,0,0,1-5.26,5.26"/><rect class="cls-1" x="23.13" y="33.64" width="10.5" height="3.22"/><g class="cls-5"><rect class="cls-6" x="23.13" y="33.64" width="10.5" height="3.22"/></g><rect class="cls-2" x="66.29" y="76.78" width="10.5" height="3.22"/><g class="cls-7"><rect class="cls-8" x="66.29" y="76.78" width="10.5" height="3.22"/></g><path class="cls-3" d="M194.29,78.32V35.48a2,2,0,0,1,.52-1.42,1.7,1.7,0,0,1,1.35-.58,1.73,1.73,0,0,1,1.36.58,2.07,2.07,0,0,1,.52,1.42V39.8a14,14,0,0,1,4.67-4.36,14.57,14.57,0,0,1,7.78-2,15.12,15.12,0,0,1,11.36,4.77A16.35,16.35,0,0,1,226.43,50a16,16,0,0,1-4.65,11.64,15.22,15.22,0,0,1-11.29,4.74,14.9,14.9,0,0,1-7.81-1.93A13,13,0,0,1,198,60.13V78.32a2,2,0,0,1-.55,1.36,1.8,1.8,0,0,1-2.65,0A2,2,0,0,1,194.29,78.32Zm16.07-41.81a11.45,11.45,0,0,0-8.84,3.81A13.77,13.77,0,0,0,198,50a13.39,13.39,0,0,0,3.51,9.58,11.65,11.65,0,0,0,8.81,3.71,11.38,11.38,0,0,0,8.74-3.91A13.37,13.37,0,0,0,222.68,50a13.87,13.87,0,0,0-3.51-9.52A11.27,11.27,0,0,0,210.36,36.51Z"/><path class="cls-3" d="M246.69,33.8h3.16a1.6,1.6,0,0,1,1.13.45,1.46,1.46,0,0,1,.48,1.1,1.57,1.57,0,0,1-.48,1.13,1.55,1.55,0,0,1-1.13.48H247a8.93,8.93,0,0,0-6.55,2.84,9.61,9.61,0,0,0-2.81,7V64.38a2,2,0,0,1-.54,1.42,1.76,1.76,0,0,1-1.33.58,1.83,1.83,0,0,1-1.35-.58,1.91,1.91,0,0,1-.58-1.42V35.48a1.91,1.91,0,0,1,.58-1.42,1.83,1.83,0,0,1,1.35-.58,1.76,1.76,0,0,1,1.33.58,2,2,0,0,1,.54,1.42V39a10.3,10.3,0,0,1,3.71-3.71A10.16,10.16,0,0,1,246.69,33.8Z"/><path class="cls-3" d="M286.24,49.87a16.62,16.62,0,1,1-33.23,0,15.7,15.7,0,0,1,4.81-11.65,17,17,0,0,1,23.55,0A15.66,15.66,0,0,1,286.24,49.87Zm-3.74,0a13.15,13.15,0,0,0-3.71-9.39,12.68,12.68,0,0,0-18.32,0,13.12,13.12,0,0,0-3.72,9.39,13.49,13.49,0,0,0,3.68,9.51,12.6,12.6,0,0,0,18.36,0A13.43,13.43,0,0,0,282.5,49.87Z"/><path class="cls-3" d="M294.83,64.38V37H291a1.5,1.5,0,0,1-1.1-.45,1.58,1.58,0,0,1-.45-1.16,1.56,1.56,0,0,1,.42-1.1A1.46,1.46,0,0,1,291,33.8h3.81V25.47A7.78,7.78,0,0,1,297,20a6.79,6.79,0,0,1,5.19-2.35h3.74a1.5,1.5,0,0,1,1.1.45,1.58,1.58,0,0,1,.45,1.16,1.48,1.48,0,0,1-.45,1.13,1.56,1.56,0,0,1-1.1.42h-2.77a4.27,4.27,0,0,0-3.26,1.42,4.69,4.69,0,0,0-1.32,3.29V33.8h7.74a1.54,1.54,0,0,1,1.55,1.55,1.58,1.58,0,0,1-.45,1.16,1.5,1.5,0,0,1-1.1.45h-7.74V64.38A2,2,0,0,1,298,65.8a1.75,1.75,0,0,1-1.32.58,1.73,1.73,0,0,1-1.36-.58A2.06,2.06,0,0,1,294.83,64.38Z"/></g></g></svg>