<svg xmlns="http://www.w3.org/2000/svg" viewBox="0 0 307.7 145.39"><defs><style>.cls-1{fill:#ffa117;}</style></defs><title>Ativo 1</title><g id="Camada_2" data-name="Camada 2"><g id="Camada_1-2" data-name="Camada 1"><path class="cls-1" d="M225.35,7.58a8.56,8.56,0,0,1,1.44-4.8c2.24-3.24,6.25-3.72,9-1.07l71.93,70-71.86,71.89a5.72,5.72,0,0,1-9-.92,8.62,8.62,0,0,1,.77-10.68l60.11-60.12-60-58.44A8.21,8.21,0,0,1,225.35,7.58Z"/><path class="cls-1" d="M150.23,7.58a8.49,8.49,0,0,1,1.45-4.8c2.23-3.24,6.25-3.72,9-1.07l71.94,70-71.87,71.89a5.72,5.72,0,0,1-9-.92A8.62,8.62,0,0,1,152.5,132l60.12-60.12L152.57,13.45A8.21,8.21,0,0,1,150.23,7.58Z"/><path class="cls-1" d="M75.12,7.58a8.48,8.48,0,0,1,1.44-4.8c2.23-3.24,6.25-3.72,9-1.07l71.93,70L85.6,143.61a5.71,5.71,0,0,1-9-.92A8.59,8.59,0,0,1,77.39,132L137.5,71.89l-60-58.44A8.24,8.24,0,0,1,75.12,7.58Z"/><path class="cls-1" d="M0,7.58a8.48,8.48,0,0,1,1.44-4.8c2.24-3.24,6.25-3.72,9-1.07l71.93,70L10.49,143.61a5.72,5.72,0,0,1-9-.92A8.6,8.6,0,0,1,2.27,132L62.38,71.89l-60-58.44A8.21,8.21,0,0,1,0,7.58Z"/></g></g></svg>